<svg width="1145" height="1145" xmlns="http://www.w3.org/2000/svg" version="1.0" preserveAspectRatio="xMidYMid meet">
 <metadata>Created by potrace 1.16, written by Peter Selinger 2001-2019</metadata>

 <g>
  <title>Layer 1</title>
  <path stroke="null" id="svg_33" d="m533.65901,5.87876" opacity="NaN" fill="#fff"/>
  <path stroke="#000" id="svg_37" d="m517.49846,15.30575l125.91761,-4.71349l107.73699,8.08027l111.77713,43.0948l56.56192,37.70795l68.68233,72.72247l44.44151,74.06918l33.66781,75.41589l32.3211,111.77713l9.42699,82.14946l4.04014,99.65672l-21.5474,83.49617l-37.70795,87.53631l-33.66781,74.06918l-51.17507,60.60206l-75.41589,63.29548l-70.02904,20.20069l-79.45603,9.42699l-122.55083,-5.38685l-98.31,-14.81384l-52.52178,-40.40137l-44.44151,-117.16398l-43.0948,-16.16055l-44.44151,-4.04014l-39.05466,1.34671l-36.36123,-8.08027l-30.97439,-12.12041l-33.66781,-4.04014l-28.28096,-8.08027l-22.89411,-5.38685l-43.0948,-4.04014l-30.97439,-10.7737l-13.46712,-13.46712l13.46712,-37.70795l-13.46712,-26.93425l-14.81384,-26.93425l-6.73356,-22.89411l29.62767,-71.37576l9.42699,-37.70795l-5.38685,-36.36123l-5.38685,-30.97439l36.36123,-35.01452l18.85397,-16.16055l22.89411,-12.12041l17.50726,-5.38685l17.50726,-1.34671l8.08027,-13.46712l1.34671,-33.66781l12.12041,-47.13493l48.48165,-92.92316l68.68233,-64.6422l99.65672,-80.80274l90.22973,-41.74808" opacity="NaN" fill="#ffffff"/>
  <g stroke="null" id="svg_38">
   <path stroke="null" d="m523.55868,4.53203c-3.36678,1.07737 -7.40692,2.02007 -8.8883,2.02007c-1.61605,0 -4.57882,0.80803 -6.59889,1.8854c-2.02007,1.07737 -7.67626,2.96277 -12.6591,4.30948c-4.84816,1.21204 -11.85107,3.63612 -15.62186,5.25218c-3.63612,1.75073 -10.10034,4.04014 -14.14048,5.25218c-4.17481,1.21204 -15.89121,7.0029 -26.26089,12.92844c-10.36969,6.06021 -23.29812,13.06311 -28.68497,15.89121c-5.92553,2.8281 -13.87114,8.61896 -19.52733,13.87114c-5.38685,4.84816 -13.06311,11.85107 -17.10325,15.48719c-4.04014,3.63612 -9.831,8.8883 -12.79377,11.85107c-2.96277,2.8281 -8.08027,7.0029 -11.44706,9.29232c-9.56166,6.46422 -17.50726,13.06311 -26.26089,21.68207c-4.44415,4.30948 -11.04304,10.23501 -14.81384,12.92844c-3.63612,2.8281 -8.21495,6.59889 -9.96567,8.61896c-1.8854,1.8854 -4.30948,3.50145 -5.65619,3.50145c-1.21204,0 -4.71349,2.42408 -7.54159,5.52152c-2.8281,3.09744 -8.08027,8.34962 -11.7164,11.85107c-3.50145,3.36678 -8.48429,9.42699 -11.04304,13.19778c-2.55875,3.90547 -5.25218,7.13758 -6.06021,7.13758c-1.75073,0 -19.662,18.18062 -21.68207,22.08608c-2.96277,5.79086 -23.02878,31.78241 -24.64484,31.78241c-0.80803,0 -4.71349,7.67626 -8.61896,17.10325c-3.90547,9.56166 -7.9456,18.18062 -9.02297,19.39266c-1.07737,1.07737 -1.8854,4.30948 -1.8854,7.13758c0,2.69342 -0.9427,7.81093 -2.02007,11.31238c-1.07737,3.50145 -2.55875,10.90837 -3.36678,16.42989c-2.42408,18.18062 -3.77079,25.58754 -6.06021,33.39847c-1.21204,4.17481 -2.8281,9.831 -3.63612,12.6591c-0.80803,2.69342 -1.07737,6.46422 -0.53868,8.48429c0.53868,2.02007 0.13467,5.65619 -0.80803,8.21495c-1.48138,4.17481 -2.15474,4.57882 -6.86823,4.57882c-8.75363,0 -43.36414,12.25508 -47.40428,16.83391c-2.55875,2.96277 -20.33536,17.7766 -27.6076,23.16345c-12.92844,9.56166 -36.89992,34.61051 -39.59335,41.47874c-1.8854,4.57882 -0.67336,14.54449 2.42408,20.20069c1.75073,2.96277 4.98284,11.7164 7.27225,19.39266c3.63612,11.58173 4.30948,16.29522 4.30948,27.20359c0,7.27225 -0.53868,13.46712 -1.21204,13.87114c-0.53868,0.40401 -1.48138,4.57882 -2.02007,9.42699c-1.07737,10.10034 -4.98284,22.35543 -8.8883,27.33826c-1.48138,1.8854 -2.69342,4.30948 -2.69342,5.38685c0,1.75073 -4.98284,13.73647 -8.21495,19.52733c-0.67336,1.34671 -1.21204,2.96277 -1.21204,3.50145c0,0.67336 -3.36678,4.71349 -7.54159,9.15764c-9.831,10.50436 -11.7164,14.94851 -9.69633,23.16345c1.75073,7.40692 4.98284,16.29522 11.04304,30.16636c1.21204,2.69342 2.15474,5.65619 2.15474,6.73356c0,1.61605 6.46422,14.81384 15.35252,31.3784c1.8854,3.63612 4.57882,7.81093 5.92553,9.42699c6.06021,6.86823 5.92553,6.59889 0.9427,13.87114c-2.55875,3.90547 -4.71349,7.40692 -4.71349,8.08027c0,0.53868 -1.21204,3.63612 -2.69342,6.73356c-2.42408,4.98284 -2.96277,5.52152 -5.38685,4.04014c-3.63612,-2.28941 -5.25218,-0.13467 -1.75073,2.28941c2.96277,2.15474 7.13758,9.15764 7.13758,12.25508c0,0.9427 2.28941,2.8281 5.11751,4.17481c2.69342,1.21204 5.25218,2.69342 5.65619,3.09744c0.40401,0.53868 4.30948,2.28941 8.75363,3.90547c4.44415,1.61605 9.96567,3.77079 12.25508,4.84816c2.15474,1.07737 5.52152,1.48138 7.13758,1.07737c1.75073,-0.40401 3.50145,-0.26934 4.04014,0.40401c1.8854,2.69342 9.56166,7.27225 12.12041,7.27225c1.48138,0 4.17481,0.67336 6.06021,1.48138c2.55875,1.21204 3.90547,1.21204 5.38685,0c2.42408,-2.02007 12.25508,0.40401 30.97439,7.54159c6.86823,2.69342 13.19778,4.30948 14.94851,3.90547c1.61605,-0.40401 4.04014,0 5.52152,0.9427c1.34671,0.9427 5.92553,2.8281 10.10034,4.17481c7.54159,2.42408 18.58463,2.42408 30.4357,0c2.42408,-0.40401 5.52152,-0.40401 6.73356,0.13467c1.34671,0.53868 4.57882,0.9427 7.27225,0.80803c4.57882,-0.26934 20.06602,3.90547 23.29812,6.32955c0.80803,0.67336 4.17481,1.8854 7.54159,2.8281c3.36678,0.9427 7.0029,2.55875 8.08027,3.50145c2.15474,1.8854 11.31238,7.0029 22.08608,12.38975c5.38685,2.69342 9.02297,3.36678 20.06602,3.77079c9.15764,0.26934 14.81384,-0.13467 17.7766,-1.48138c2.42408,-0.9427 10.23501,-2.28941 17.37259,-2.69342c12.92844,-0.9427 13.19778,-0.9427 21.95141,3.50145c8.61896,4.30948 9.02297,4.44415 17.23792,2.96277c4.57882,-0.9427 10.36969,-1.61605 12.6591,-1.61605c2.42408,0 5.65619,-0.67336 7.27225,-1.48138c2.42408,-1.34671 3.36678,-1.07737 6.59889,2.8281c6.59889,7.9456 13.19778,22.08608 13.19778,28.28096c0,7.40692 3.23211,21.95141 8.21495,37.03459c2.15474,6.59889 3.90547,13.19778 3.90547,14.54449c0,2.55875 4.57882,12.38975 7.40692,15.75654c0.9427,1.07737 2.42408,4.30948 3.36678,7.27225c1.07737,3.23211 6.46422,10.50436 14.27515,19.12332c7.0029,7.81093 13.6018,15.75654 14.94851,17.7766c3.36678,5.52152 11.44706,13.73647 13.6018,13.73647c0.9427,0 5.79086,2.15474 10.63903,4.71349c4.84816,2.55875 9.69633,4.71349 10.50436,4.71349c2.96277,0 5.25218,3.77079 3.50145,5.79086c-0.80803,1.07737 -1.07737,2.28941 -0.53868,2.69342c0.40401,0.53868 0.13467,0.9427 -0.80803,0.9427c-0.9427,0 -1.21204,0.67336 -0.80803,1.34671c0.53868,0.80803 -0.13467,2.96277 -1.34671,4.84816c-2.55875,3.90547 -1.61605,5.92553 2.8281,5.92553c2.42408,0 3.23211,-0.67336 3.23211,-2.8281c0,-3.50145 5.65619,-13.06311 6.46422,-10.90837c0.80803,2.42408 -2.42408,10.90837 -5.11751,13.46712c-1.34671,1.21204 -2.8281,4.30948 -3.36678,6.73356c-0.67336,3.63612 -0.53868,4.30948 1.61605,4.30948c1.75073,0 4.30948,-3.50145 8.48429,-11.58173c3.36678,-6.32955 6.86823,-12.12041 7.81093,-12.92844c3.09744,-2.69342 3.63612,0.26934 1.07737,6.73356c-2.69342,7.0029 -8.08027,25.45286 -9.56166,32.3211c-0.67336,3.09744 -0.40401,4.30948 0.9427,4.30948c1.07737,0 2.55875,-2.96277 3.63612,-7.81093c1.8854,-8.34962 4.71349,-17.91128 7.0029,-23.16345c4.17481,-9.69633 4.57882,-10.10034 9.29232,-9.96567c6.06021,0 6.59889,2.8281 1.75073,8.08027c-5.92553,6.19488 -10.36969,14.00581 -8.75363,15.62186c0.80803,0.80803 2.28941,0.26934 4.44415,-2.02007c4.17481,-4.17481 11.98574,-15.48719 11.98574,-17.10325c0,-1.8854 6.59889,-1.61605 16.42989,0.53868c9.69633,2.28941 59.52469,5.52152 66.39292,4.44415c2.55875,-0.40401 18.98865,-0.13467 36.63058,0.67336c17.64193,0.67336 51.17507,1.48138 74.4732,1.75073c35.55321,0.40401 43.49881,0.13467 49.155,-1.61605c3.77079,-1.21204 7.27225,-2.69342 8.08027,-3.23211c0.67336,-0.67336 2.8281,-1.21204 4.84816,-1.21204c2.02007,0 5.79086,-0.9427 8.34962,-2.02007c2.69342,-1.07737 10.36969,-2.55875 17.23792,-3.36678c30.03169,-3.36678 72.45313,-23.02878 100.33008,-46.32691c13.73647,-11.58173 21.00871,-17.50726 23.29812,-19.12332c2.55875,-1.75073 14.94851,-14.14048 14.94851,-14.81384c0,-0.26934 3.23211,-5.11751 7.13758,-10.7737c3.77079,-5.65619 7.9456,-11.58173 9.02297,-13.33245c1.07737,-1.61605 3.36678,-4.44415 4.98284,-6.19488c10.63903,-11.85107 17.64193,-20.06602 20.6047,-24.10615c1.8854,-2.55875 5.25218,-6.73356 7.54159,-9.42699c5.92553,-6.73356 19.93134,-28.14629 22.08608,-33.66781c0.9427,-2.55875 2.28941,-5.38685 2.8281,-6.06021c0.53868,-0.80803 1.34671,-3.63612 1.8854,-6.46422c0.53868,-2.69342 1.48138,-5.25218 2.02007,-5.65619c0.67336,-0.40401 2.69342,-5.65619 4.71349,-11.58173c1.8854,-5.92553 4.84816,-13.06311 6.73356,-15.75654c1.75073,-2.8281 3.50145,-7.0029 4.04014,-9.56166c0.53868,-2.42408 2.42408,-7.9456 4.30948,-12.12041c1.8854,-4.17481 5.11751,-12.92844 7.40692,-19.52733c2.15474,-6.59889 6.32955,-17.23792 9.02297,-23.56747c2.8281,-6.32955 5.52152,-13.46712 6.06021,-15.62186c0.53868,-2.28941 1.75073,-5.92553 2.69342,-8.08027c1.61605,-3.77079 4.98284,-14.40982 11.58173,-37.03459c2.28941,-8.08027 5.65619,-24.37549 7.54159,-37.03459c0.40401,-2.96277 1.8854,-9.831 3.36678,-15.35252c2.42408,-8.8883 2.69342,-14.14048 2.55875,-52.9258c-0.13467,-23.70214 -0.80803,-46.19224 -1.48138,-50.0977c-0.80803,-3.77079 -1.8854,-11.17771 -2.55875,-16.29522c-0.53868,-5.25218 -1.75073,-12.52443 -2.42408,-16.29522c-0.80803,-3.77079 -1.75073,-12.25508 -2.28941,-18.85397c-0.80803,-13.33245 -2.8281,-27.20359 -4.84816,-33.80248c-0.80803,-2.42408 -1.8854,-9.42699 -2.55875,-15.48719c-2.55875,-22.4901 -5.92553,-37.03459 -14.81384,-64.23818c-4.57882,-14.00581 -13.73647,-34.34117 -17.37259,-38.51598c-1.34671,-1.48138 -4.04014,-6.73356 -5.92553,-11.58173c-1.8854,-4.98284 -5.38685,-12.25508 -7.54159,-16.16055c-4.30948,-7.54159 -5.52152,-9.96567 -23.70214,-47.67362c-11.31238,-23.4328 -23.83681,-42.82545 -37.30393,-57.63929c-9.96567,-10.90837 -9.42699,-10.50436 -13.87114,-16.42989c-2.15474,-2.96277 -8.21495,-10.36969 -13.46712,-16.56456c-5.11751,-6.19488 -11.17771,-13.46712 -13.19778,-16.16055c-6.86823,-9.02297 -9.56166,-11.98574 -16.42989,-17.7766c-3.63612,-3.09744 -12.12041,-10.63903 -18.58463,-16.69923c-6.59889,-5.92553 -14.40982,-12.6591 -17.50726,-14.67917c-3.09744,-2.02007 -5.92553,-4.17481 -6.32955,-4.84816c-0.40401,-0.53868 -2.8281,-1.75073 -5.38685,-2.8281c-2.55875,-0.9427 -7.40692,-3.63612 -10.7737,-5.92553c-6.86823,-4.71349 -13.73647,-7.9456 -19.52733,-9.42699c-4.71349,-1.07737 -18.18062,-8.8883 -18.18062,-10.50436c0,-0.53868 -1.61605,-1.07737 -3.63612,-1.07737c-2.15474,0 -7.67626,-1.21204 -12.25508,-2.69342c-4.71349,-1.48138 -9.831,-2.69342 -11.17771,-2.69342c-1.48138,0 -8.21495,-2.8281 -15.08318,-6.19488c-16.69923,-8.34962 -20.6047,-9.69633 -39.324,-13.6018c-8.8883,-1.75073 -18.58463,-3.90547 -21.5474,-4.57882c-2.96277,-0.67336 -9.56166,-1.48138 -14.54449,-1.8854c-4.98284,-0.26934 -9.56166,-0.9427 -10.23501,-1.21204c-1.61605,-1.07737 -34.74518,-2.8281 -46.59625,-2.55875c-25.31819,0.67336 -128.34169,0.53868 -133.99789,-0.13467c-3.50145,-0.40401 -8.48429,0.13467 -12.12041,1.21204zm136.01795,11.7164c35.01452,-0.80803 62.35278,-0.26934 71.10642,1.61605c5.38685,1.21204 11.7164,2.15474 14.00581,2.15474c2.28941,0 6.59889,0.67336 9.69633,1.48138c2.96277,0.80803 7.9456,2.02007 10.90837,2.8281c10.10034,2.69342 28.28096,9.69633 31.51307,12.12041c1.75073,1.34671 4.17481,2.42408 5.52152,2.42408c2.28941,0 21.5474,9.02297 22.89411,10.7737c0.40401,0.40401 5.52152,2.55875 11.44706,4.57882c12.52443,4.44415 23.97148,10.10034 29.35833,14.54449c2.96277,2.42408 4.04014,4.84816 4.98284,11.17771c0.67336,4.44415 2.69342,11.98574 4.71349,16.69923c2.02007,4.84816 3.90547,12.52443 4.30948,17.64193c0.67336,8.48429 0.40401,9.69633 -3.50145,16.56456c-2.28941,4.04014 -4.17481,8.08027 -4.17481,9.02297c0,1.07737 -1.8854,7.81093 -4.30948,15.08318c-3.50145,11.04304 -4.84816,13.73647 -7.9456,15.21785c-2.02007,1.07737 -6.32955,4.98284 -9.42699,8.61896c-7.0029,7.9456 -13.46712,11.04304 -23.16345,10.90837c-3.77079,-0.13467 -10.63903,0.53868 -15.08318,1.34671c-4.44415,0.9427 -10.50436,2.02007 -13.46712,2.55875c-3.77079,0.53868 -5.52152,1.61605 -5.79086,3.36678c-0.67336,2.96277 2.15474,5.11751 5.38685,4.04014c1.61605,-0.40401 2.96277,0.53868 4.44415,3.36678c1.48138,3.09744 3.36678,4.30948 7.13758,4.98284c2.69342,0.53868 5.65619,1.48138 6.59889,2.15474c0.9427,0.67336 3.50145,0.9427 5.79086,0.40401c3.09744,-0.67336 4.98284,-0.26934 6.86823,1.48138c2.8281,2.55875 2.8281,2.55875 6.59889,-3.50145c1.07737,-1.75073 1.48138,-1.61605 3.09744,0.53868c2.42408,3.36678 4.71349,1.8854 5.79086,-3.90547c0.40401,-2.42408 2.02007,-5.65619 3.63612,-7.0029c2.69342,-2.42408 2.69342,-2.42408 1.75073,0.9427c-1.61605,5.79086 -1.61605,7.27225 0.67336,7.81093c1.48138,0.26934 2.8281,-1.48138 4.30948,-5.38685c1.34671,-3.23211 2.28941,-6.73356 2.28941,-7.9456c0,-3.63612 3.36678,-9.15764 6.06021,-9.831c3.77079,-0.9427 3.90547,-0.26934 1.48138,5.92553c-2.8281,7.0029 -2.69342,8.08027 0.53868,8.08027c2.55875,0 3.36678,-1.07737 6.19488,-8.75363c0.9427,-2.55875 0.9427,-2.55875 1.61605,-0.13467c0.26934,1.34671 -0.53868,4.44415 -1.8854,7.0029c-2.02007,3.63612 -2.15474,4.84816 -0.80803,6.19488c2.69342,2.69342 5.11751,-1.61605 8.21495,-14.81384c1.48138,-6.32955 3.36678,-12.12041 4.17481,-12.92844c1.8854,-1.8854 1.61605,-3.50145 -0.67336,-3.50145c-1.61605,0 -2.02007,-2.15474 -2.02007,-11.17771c0,-6.19488 -0.67336,-11.85107 -1.48138,-12.6591c-1.75073,-1.75073 -1.07737,-8.08027 0.80803,-7.13758c0.67336,0.40401 1.48138,1.8854 1.61605,3.23211c0.53868,3.36678 1.21204,4.04014 2.8281,2.96277c0.80803,-0.40401 1.21204,-10.36969 1.07737,-23.29812c-0.13467,-21.95141 -0.26934,-22.75944 -3.77079,-28.68497c-3.77079,-6.32955 -7.40692,-18.31529 -5.92553,-19.79667c0.40401,-0.53868 3.09744,0.9427 5.92553,3.23211c2.69342,2.15474 8.8883,6.59889 13.6018,9.96567c16.69923,11.58173 20.06602,14.14048 29.08899,22.08608c12.38975,11.04304 22.35543,20.87404 25.58754,25.45286c1.48138,2.15474 6.32955,8.48429 10.7737,14.14048c19.39266,24.51017 36.63058,47.94296 44.71085,61.00607c3.90547,6.19488 8.34962,11.98574 9.831,12.92844c1.48138,0.9427 4.17481,4.57882 5.92553,8.08027c5.79086,11.58173 14.54449,27.74228 19.12332,35.55321c6.06021,9.831 11.44706,21.95141 15.89121,35.28387c1.8854,5.92553 4.04014,11.31238 4.71349,12.12041c0.67336,0.80803 2.42408,5.38685 4.04014,10.23501c1.75073,4.71349 4.17481,11.31238 5.79086,14.54449c1.48138,3.23211 3.90547,10.90837 5.38685,16.96858c1.48138,5.92553 3.50145,12.38975 4.44415,14.27515c1.8854,3.77079 7.40692,24.37549 7.40692,27.74228c0,1.34671 -0.67336,1.8854 -2.02007,1.48138c-3.36678,-1.34671 -3.36678,1.21204 -0.13467,9.29232c9.02297,22.08608 13.46712,55.75389 12.25508,90.22973c-1.07737,26.66491 -3.36678,36.76525 -3.36678,14.81384c0,-7.40692 -0.67336,-17.23792 -1.48138,-21.95141c-1.21204,-7.13758 -1.8854,-8.48429 -4.17481,-8.48429c-2.42408,0 -2.69342,0.53868 -1.8854,4.30948c2.96277,13.6018 3.23211,20.33536 2.15474,42.42144c-0.67336,13.19778 -1.34671,25.04885 -1.34671,26.26089c0,1.61605 -1.07737,2.42408 -3.23211,2.42408c-5.11751,0 -6.59889,5.25218 -11.04304,37.03459c-1.75073,13.33245 -3.63612,26.26089 -4.04014,28.5503c-0.67336,3.36678 -0.40401,4.44415 1.21204,4.44415c2.15474,0 2.8281,-3.36678 4.44415,-20.06602c0.67336,-7.40692 1.61605,-10.50436 3.50145,-12.12041c6.59889,-5.52152 14.27515,-30.70504 14.67917,-48.88566c0.13467,-7.0029 0.67336,-8.8883 3.36678,-11.17771c2.69342,-2.28941 3.23211,-4.71349 4.44415,-17.37259c0.80803,-8.08027 1.75073,-14.94851 2.02007,-15.21785c1.07737,-1.21204 2.55875,26.79958 2.55875,49.42435c0,23.02878 -1.75073,35.55321 -3.77079,28.5503c-0.53868,-1.61605 -2.02007,-2.96277 -3.23211,-2.96277c-3.63612,0 -4.30948,1.48138 -2.15474,4.57882c6.06021,8.48429 -2.55875,48.34698 -12.12041,56.69659c-1.75073,1.48138 -5.11751,23.16345 -3.90547,25.04885c1.07737,1.8854 -4.57882,23.83681 -9.02297,33.93715c-2.28941,5.38685 -6.73356,15.21785 -9.96567,21.95141c-6.86823,14.40982 -10.50436,24.51017 -9.42699,26.26089c1.8854,2.96277 4.71349,0.80803 6.06021,-4.57882c0.80803,-3.09744 2.02007,-6.86823 2.69342,-8.34962c0.67336,-1.48138 3.63612,-8.08027 6.73356,-14.54449c2.96277,-6.59889 5.38685,-12.25508 5.38685,-12.6591c0,-0.40401 2.02007,-5.92553 4.57882,-12.38975c2.55875,-6.32955 5.65619,-17.37259 6.73356,-24.37549c1.75073,-11.04304 14.27515,-51.57909 16.42989,-53.73383c1.07737,-0.9427 -0.13467,7.67626 -4.04014,30.83971c-1.8854,11.44706 -6.19488,28.01162 -11.44706,44.44151c-4.57882,14.40982 -9.96567,31.10906 -11.85107,37.03459c-1.75073,5.92553 -5.11751,14.27515 -7.27225,18.58463c-2.15474,4.30948 -3.90547,8.48429 -3.90547,9.15764c0,1.75073 -5.38685,13.87114 -10.36969,23.29812c-2.28941,4.57882 -7.27225,14.14048 -10.90837,21.27806c-3.63612,7.27225 -7.27225,13.87114 -7.9456,14.81384c-0.80803,0.9427 -4.04014,6.86823 -7.27225,13.19778c-7.54159,14.81384 -17.50726,30.16636 -28.68497,44.30684c-4.98284,6.19488 -9.69633,12.52443 -10.50436,14.14048c-0.80803,1.61605 -3.23211,4.84816 -5.38685,7.27225c-2.15474,2.55875 -5.38685,7.0029 -7.40692,10.10034c-4.98284,8.08027 -19.52733,22.62477 -25.58754,25.85688c-5.79086,3.09744 -6.19488,3.23211 -12.52443,8.34962c-2.55875,2.15474 -7.13758,5.65619 -10.10034,7.81093c-2.96277,2.15474 -7.0029,5.38685 -8.8883,7.0029c-11.85107,10.63903 -34.2065,23.70214 -51.30974,30.16636c-13.33245,5.11751 -19.12332,5.92553 -55.61922,8.61896c-4.44415,0.26934 -13.6018,0.9427 -20.47003,1.48138c-11.85107,0.9427 -18.58463,0.13467 -15.89121,-1.8854c0.80803,-0.53868 2.15474,-2.55875 2.96277,-4.44415c1.48138,-3.23211 2.02007,-3.50145 6.86823,-2.55875c5.11751,0.9427 5.38685,0.67336 7.54159,-3.63612c1.21204,-2.42408 2.15474,-5.65619 2.15474,-7.13758c0,-1.34671 1.48138,-3.63612 3.36678,-5.11751c1.8854,-1.48138 3.36678,-2.96277 3.36678,-3.23211c0,-0.40401 -2.69342,-0.67336 -5.92553,-0.67336c-5.79086,-0.13467 -5.79086,-0.13467 -8.75363,7.13758c-1.8854,4.30948 -3.90547,7.27225 -5.11751,7.27225c-2.02007,0 -2.02007,-1.07737 -0.13467,-9.42699c0.26934,-1.07737 -0.53868,-2.02007 -1.8854,-2.28941c-1.48138,-0.40401 -2.69342,0.80803 -3.63612,4.04014c-0.9427,2.55875 -3.90547,7.81093 -6.86823,11.7164c-2.96277,4.04014 -5.38685,8.08027 -5.38685,9.02297c0,1.07737 -1.61605,1.75073 -4.30948,1.75073c-4.17481,0 -11.98574,2.28941 -28.68497,8.08027c-21.27806,7.54159 -28.41563,8.48429 -36.22656,4.57882c-2.15474,-0.9427 -6.73356,-1.8854 -10.36969,-1.8854c-3.50145,0 -10.7737,-0.80803 -16.29522,-1.8854c-5.38685,-1.07737 -20.47003,-2.69342 -33.39847,-3.50145c-14.14048,-0.9427 -29.76234,-2.96277 -39.05466,-4.98284c-8.48429,-1.8854 -19.25799,-3.77079 -23.83681,-4.04014c-4.71349,-0.40401 -8.48429,-1.07737 -8.48429,-1.61605c0,-0.40401 0.9427,-2.02007 2.02007,-3.36678c1.8854,-2.55875 2.15474,-2.55875 3.77079,-0.40401c1.34671,2.02007 2.15474,2.15474 5.25218,0.67336c4.57882,-2.15474 4.71349,-2.96277 0.40401,-4.84816c-2.96277,-1.34671 -3.23211,-2.02007 -2.02007,-4.17481c1.8854,-3.63612 4.04014,-4.71349 5.65619,-3.09744c2.55875,2.55875 11.85107,-2.28941 37.97729,-19.52733c9.69633,-6.59889 14.27515,-8.48429 14.27515,-6.32955c0,2.15474 -10.90837,9.96567 -21.5474,15.48719c-5.65619,2.96277 -6.73356,4.84816 -3.50145,6.06021c2.55875,0.9427 29.08899,-16.56456 29.08899,-19.12332c0,-1.07737 0.40401,-1.8854 0.80803,-1.8854c1.61605,0 5.92553,2.8281 5.92553,3.90547c0,1.61605 -16.02588,14.27515 -20.6047,16.42989c-3.77079,1.75073 -5.11751,6.59889 -1.75073,6.59889c1.34671,0 13.6018,-8.61896 16.96858,-12.12041c7.0029,-7.0029 9.56166,-8.48429 12.38975,-7.13758c1.75073,0.80803 4.17481,1.8854 5.52152,2.28941c1.21204,0.40401 2.28941,1.21204 2.28941,1.8854c0,2.15474 -13.87114,11.98574 -19.25799,13.73647c-3.63612,1.07737 -4.98284,2.28941 -4.71349,3.77079c0.26934,1.48138 1.48138,2.15474 3.09744,1.8854c1.48138,-0.26934 5.25218,-0.40401 8.48429,-0.40401c4.17481,0 7.54159,-1.07737 12.52443,-4.04014c7.13758,-4.44415 8.75363,-4.44415 7.40692,-0.13467c-1.75073,5.25218 -6.19488,9.42699 -12.12041,11.17771c-3.36678,0.9427 -7.40692,2.8281 -9.15764,4.17481c-2.69342,2.02007 -2.8281,2.55875 -1.07737,3.77079c6.19488,4.04014 14.94851,0.13467 27.47293,-12.25508l7.9456,-7.81093l-2.96277,-4.98284c-1.8854,-3.09744 -2.69342,-6.19488 -2.28941,-8.08027c0.53868,-1.75073 0.26934,-3.50145 -0.53868,-3.90547c-0.67336,-0.40401 -1.34671,-2.28941 -1.34671,-4.17481c0,-4.04014 -3.09744,-4.30948 -5.52152,-0.40401c-1.8854,2.69342 -2.02007,2.69342 -6.86823,0.40401c-2.69342,-1.21204 -5.25218,-3.36678 -5.52152,-4.84816c-0.40401,-1.61605 -1.48138,-2.15474 -2.8281,-1.61605c-1.21204,0.40401 -5.38685,-0.67336 -9.29232,-2.55875c-9.02297,-4.44415 -17.64193,-6.86823 -20.33536,-5.92553c-2.8281,1.07737 -2.69342,4.98284 0,7.0029c1.8854,1.34671 1.48138,2.02007 -3.90547,5.11751c-3.36678,2.02007 -6.59889,3.63612 -7.13758,3.63612c-1.61605,0 -7.27225,-7.27225 -8.08027,-10.36969c-1.07737,-4.17481 2.96277,-11.7164 9.42699,-17.50726c13.19778,-11.85107 15.08318,-13.19778 18.18062,-12.79377c2.42408,0.40401 2.96277,0 2.42408,-1.61605c-0.53868,-1.34671 2.55875,-5.38685 9.15764,-12.12041c5.52152,-5.65619 10.50436,-10.23501 11.04304,-10.23501c1.75073,0.13467 5.25218,5.79086 6.32955,9.831c0.53868,2.28941 2.28941,4.17481 4.17481,4.98284c1.8854,0.67336 3.36678,1.8854 3.36678,2.55875c0,0.67336 0.80803,2.15474 1.75073,3.09744c0.9427,0.9427 3.63612,4.84816 5.92553,8.48429c6.32955,9.96567 13.87114,15.89121 13.87114,11.04304c0,-1.07737 -1.34671,-2.55875 -2.96277,-3.50145c-1.75073,-0.80803 -5.25218,-4.71349 -7.81093,-8.61896c-12.79377,-19.25799 -20.20069,-31.24373 -20.20069,-32.85978c0,-3.63612 3.50145,-1.34671 8.75363,5.65619c5.52152,7.54159 8.21495,9.42699 6.73356,4.71349c-1.21204,-3.90547 2.28941,-3.50145 7.27225,0.80803c5.11751,4.17481 12.25508,5.79086 12.25508,2.69342c0,-1.34671 -1.21204,-2.15474 -3.23211,-2.15474c-1.75073,0 -4.84816,-1.34671 -7.0029,-2.96277c-2.15474,-1.61605 -4.17481,-3.09744 -4.30948,-3.23211c-0.9427,-0.67336 12.52443,-16.56456 14.14048,-16.56456c0.9427,-0.13467 2.69342,1.48138 4.04014,3.50145c4.84816,7.54159 16.69923,22.35543 19.79667,24.77951c1.8854,1.48138 3.90547,2.42408 4.71349,2.28941c0.80803,-0.26934 3.50145,2.55875 6.06021,6.06021c8.48429,11.85107 18.31529,21.27806 21.14338,20.47003c3.63612,-1.21204 3.23211,-3.36678 -0.67336,-3.36678c-2.02007,0 -4.44415,-1.61605 -6.59889,-4.44415c-1.8854,-2.28941 -5.52152,-6.73356 -8.21495,-9.69633c-2.69342,-2.96277 -4.84816,-5.79086 -4.84816,-6.19488c0,-0.40401 -1.48138,-2.55875 -3.36678,-4.71349c-1.8854,-2.15474 -4.84816,-6.06021 -6.46422,-8.61896c-2.96277,-4.84816 -3.23211,-5.25218 -7.40692,-10.36969c-1.34671,-1.61605 -3.63612,-4.57882 -5.11751,-6.59889c-1.34671,-1.8854 -3.90547,-5.25218 -5.65619,-7.40692l-3.09744,-3.77079l6.46422,-8.34962c3.50145,-4.57882 7.67626,-9.831 9.29232,-11.7164l2.8281,-3.50145l7.0029,14.81384c10.63903,22.4901 13.06311,26.79958 15.35252,27.20359c1.61605,0.40401 0.67336,-2.55875 -3.77079,-11.44706c-3.23211,-6.46422 -8.34962,-16.69923 -11.17771,-22.75944l-5.25218,-10.90837l3.77079,-4.57882c3.23211,-3.77079 4.04014,-4.17481 5.25218,-2.55875c0.67336,1.07737 1.34671,2.28941 1.34671,2.69342c0,0.40401 2.96277,3.90547 6.46422,7.81093c7.81093,8.48429 12.25508,9.42699 4.84816,1.07737c-2.96277,-3.36678 -6.59889,-7.81093 -8.34962,-10.10034l-2.96277,-4.04014l3.23211,-4.84816c2.96277,-4.30948 14.00581,-13.73647 14.81384,-12.52443c5.25218,7.9456 5.11751,7.9456 2.55875,9.96567c-1.34671,0.9427 -3.50145,1.8854 -4.71349,1.8854c-2.96277,0 -3.09744,3.09744 -0.40401,5.38685c1.07737,0.9427 2.02007,2.69342 2.02007,3.90547c0,1.21204 0.53868,2.8281 1.21204,3.50145c1.61605,1.75073 2.69342,11.17771 3.63612,29.22366c0.67336,12.38975 1.07737,14.54449 2.96277,14.54449c2.02007,0 2.28941,-2.02007 2.55875,-14.81384c0.26934,-8.21495 -0.13467,-14.81384 -0.80803,-14.81384c-3.77079,0 -1.75073,-18.98865 2.8281,-27.20359c1.61605,-2.8281 3.50145,-5.11751 4.04014,-5.11751c0.67336,0 1.07737,7.0029 0.9427,15.48719c-0.13467,15.48719 0.13467,17.50726 3.23211,17.50726c1.61605,0 1.61605,11.85107 0.13467,19.79667c-0.67336,3.09744 -0.26934,3.77079 2.02007,3.77079c2.42408,0 2.8281,0.80803 2.8281,5.25218c0,6.73356 1.07737,9.56166 3.23211,8.75363c1.21204,-0.40401 1.75073,-4.30948 2.02007,-11.98574c0.13467,-9.42699 -0.26934,-11.44706 -1.8854,-11.44706c-1.07737,0 -2.02007,1.07737 -2.02007,2.28941c0,1.34671 -0.40401,1.75073 -1.21204,1.07737c-0.67336,-0.80803 -0.67336,-4.71349 0,-9.42699c0.53868,-4.44415 1.75073,-18.98865 2.55875,-32.3211c1.34671,-21.95141 2.55875,-28.28096 4.71349,-25.99155c0.80803,0.67336 1.21204,20.33536 1.75073,71.77977c0.26934,16.83391 1.61605,21.95141 4.71349,18.18062c0.80803,-1.21204 2.55875,-1.8854 3.77079,-1.61605c1.61605,0.26934 2.02007,-0.53868 1.48138,-3.50145c-0.26934,-2.28941 0.26934,-4.71349 1.34671,-5.79086c3.36678,-3.36678 3.77079,-8.34962 1.34671,-19.79667c-1.61605,-7.9456 -1.8854,-11.44706 -0.80803,-12.12041c2.28941,-1.48138 13.06311,-22.35543 18.44996,-35.95722c2.69342,-6.59889 5.52152,-12.25508 6.32955,-12.52443c1.07737,-0.40401 1.34671,5.25218 0.80803,19.79667c-0.53868,16.42989 -0.26934,20.33536 1.21204,20.33536c0.9427,0 2.15474,-1.75073 2.69342,-3.90547c0.67336,-2.96277 1.48138,-3.77079 3.23211,-3.23211c2.28941,0.53868 2.69342,-0.53868 3.50145,-10.63903c0.40401,-6.06021 1.21204,-12.25508 1.61605,-13.73647c0.40401,-1.61605 0.13467,-2.28941 -1.07737,-1.8854c-2.28941,0.80803 -6.59889,-3.63612 -6.59889,-6.73356c0,-1.34671 -0.67336,-3.09744 -1.48138,-3.90547c-1.21204,-1.21204 -1.21204,-2.69342 0,-5.92553c2.15474,-6.19488 1.8854,-7.67626 -2.02007,-10.23501c-3.23211,-2.02007 -3.77079,-2.02007 -5.11751,-0.13467c-0.80803,1.07737 -3.63612,2.55875 -6.19488,3.09744c-2.55875,0.53868 -5.25218,1.34671 -6.06021,1.8854c-3.23211,2.02007 -11.17771,4.17481 -15.48719,4.17481c-8.8883,0 -46.05756,-12.25508 -51.30974,-16.96858c-1.07737,-1.07737 -2.96277,-1.8854 -4.04014,-1.8854c-3.63612,0 -9.29232,-3.36678 -9.29232,-5.38685c0,-1.21204 0.67336,-2.8281 1.61605,-3.77079c0.80803,-0.80803 1.07737,-2.02007 0.40401,-2.55875c-0.53868,-0.67336 -1.21204,-0.53868 -1.61605,0.26934c-1.8854,5.11751 -2.69342,5.11751 -10.23501,0.13467c-4.04014,-2.69342 -8.21495,-5.79086 -9.02297,-6.86823c-0.9427,-1.07737 -2.55875,-2.02007 -3.50145,-2.02007c-1.8854,0 -2.69342,-4.04014 -0.80803,-4.04014c0.53868,-0.13467 2.69342,-1.48138 4.84816,-3.36678c3.36678,-2.69342 3.77079,-3.50145 2.28941,-5.25218c-1.61605,-1.8854 -2.55875,-1.61605 -7.67626,3.23211c-4.98284,4.57882 -6.32955,5.25218 -8.61896,4.04014c-2.28941,-1.21204 -6.73356,-7.81093 -6.73356,-10.10034c0,-0.40401 2.8281,-2.02007 6.19488,-3.50145c6.32955,-2.8281 8.61896,-5.79086 6.19488,-8.21495c-0.9427,-0.9427 -2.69342,-0.40401 -5.92553,2.02007c-2.42408,1.8854 -7.13758,4.71349 -10.23501,6.06021c-5.11751,2.28941 -6.46422,2.42408 -10.7737,0.9427c-2.69342,-0.9427 -5.11751,-2.28941 -5.25218,-2.96277c-0.53868,-1.34671 13.19778,-13.87114 18.04595,-16.42989c2.96277,-1.48138 2.96277,-5.52152 -0.13467,-5.52152c-1.48138,0 -12.25508,8.8883 -20.06602,16.42989c-4.30948,4.17481 -7.0029,4.71349 -8.21495,1.75073c-0.40401,-1.07737 -2.15474,-2.02007 -3.77079,-2.02007c-1.75073,0 -4.04014,-0.67336 -5.11751,-1.34671c-1.75073,-1.07737 -1.61605,-1.48138 0.67336,-3.23211c1.48138,-1.07737 4.98284,-3.09744 7.67626,-4.44415c2.8281,-1.34671 5.11751,-3.36678 5.11751,-4.57882c0,-2.55875 -3.50145,-4.44415 -4.71349,-2.55875c-0.53868,0.80803 -4.44415,3.77079 -8.8883,6.86823c-7.0029,4.71349 -8.75363,5.38685 -13.06311,4.57882c-2.8281,-0.40401 -5.79086,-1.34671 -6.86823,-1.8854c-2.15474,-1.34671 0.53868,-4.04014 16.02588,-15.75654c5.52152,-4.17481 10.23501,-8.08027 10.50436,-8.61896c0.26934,-0.53868 -0.67336,-1.34671 -1.8854,-1.8854c-1.48138,-0.53868 -4.17481,0.80803 -7.81093,3.90547c-16.83391,14.67917 -24.91418,19.52733 -32.05176,19.52733c-2.42408,0 -5.38685,-0.67336 -6.46422,-1.34671c-1.75073,-1.07737 -1.48138,-1.8854 1.75073,-4.71349c2.02007,-1.8854 3.63612,-3.09744 3.63612,-2.69342c0,0.40401 2.8281,-2.02007 6.46422,-5.38685c3.50145,-3.36678 7.9456,-7.13758 10.10034,-8.48429c3.63612,-2.15474 5.11751,-7.0029 2.02007,-7.0029c-0.9427,0 -5.92553,4.04014 -11.17771,8.75363c-9.69633,9.02297 -13.73647,10.90837 -12.12041,6.06021c1.34671,-4.30948 -1.48138,-3.09744 -3.36678,1.34671c-1.8854,4.71349 -3.36678,5.11751 -5.38685,1.34671c-1.21204,-2.15474 -0.67336,-3.36678 2.96277,-6.86823c2.42408,-2.28941 5.79086,-4.71349 7.54159,-5.38685c3.50145,-1.34671 3.77079,-2.96277 0.9427,-5.25218c-1.75073,-1.48138 -3.77079,-0.13467 -12.92844,8.8883c-6.06021,5.92553 -11.85107,11.58173 -13.06311,12.6591c-1.61605,1.48138 -2.15474,1.61605 -2.69342,0.26934c-0.67336,-2.28941 -2.96277,-2.02007 -2.96277,0.26934c0,2.69342 -1.61605,3.50145 -5.11751,2.55875c-4.44415,-1.07737 -3.63612,-2.8281 4.17481,-9.831c3.77079,-3.63612 11.31238,-10.50436 16.42989,-15.35252c5.25218,-4.84816 9.831,-8.8883 10.50436,-8.8883c0.53868,0 0.9427,-0.80803 0.9427,-1.8854c0,-4.44415 -3.90547,-2.55875 -12.79377,6.19488c-15.35252,15.21785 -33.53314,29.35833 -37.43861,29.35833c-7.27225,0 -5.38685,-3.36678 11.58173,-20.47003c4.17481,-4.44415 7.67626,-8.21495 7.67626,-8.48429c0,-0.40401 -1.48138,-0.67336 -3.23211,-0.67336c-2.42408,0 -5.65619,2.69342 -11.85107,9.831c-13.19778,15.08318 -19.12332,19.93134 -25.72221,21.27806c-3.23211,0.53868 -6.59889,1.21204 -7.54159,1.48138c-3.50145,0.80803 -2.69342,-2.28941 1.21204,-4.98284c9.56166,-6.73356 24.24082,-20.33536 24.24082,-22.4901c0,-3.77079 -2.15474,-2.8281 -9.15764,3.90547c-6.32955,6.46422 -16.96858,15.48719 -22.4901,19.25799c-8.61896,5.92553 -12.25508,8.08027 -13.73647,8.08027c-2.69342,0 -2.02007,-2.42408 1.07737,-5.11751c1.48138,-1.21204 5.52152,-6.19488 9.02297,-11.04304c3.36678,-4.84816 9.69633,-12.52443 14.14048,-17.23792c6.73356,-7.13758 7.67626,-8.75363 6.19488,-10.50436c-1.48138,-1.8854 -2.15474,-1.61605 -5.65619,2.42408c-2.02007,2.42408 -5.52152,6.46422 -7.67626,8.8883c-2.15474,2.42408 -5.92553,7.40692 -8.21495,11.17771c-4.17481,6.19488 -5.25218,7.13758 -8.75363,6.73356c-2.02007,-0.26934 -10.36969,8.21495 -15.08318,15.08318c-2.02007,3.09744 -4.84816,9.15764 -6.06021,13.33245c-1.61605,5.25218 -3.63612,8.61896 -6.46422,10.7737c-2.15474,1.75073 -6.46422,5.79086 -9.69633,9.15764c-17.37259,18.58463 -30.16636,30.83971 -32.05176,30.97439c-1.21204,0 -2.8281,-0.80803 -3.63612,-1.75073c-3.09744,-3.77079 -3.09744,-8.48429 0.40401,-16.69923c3.77079,-9.56166 4.17481,-12.52443 1.48138,-12.52443c-2.15474,0 -6.19488,5.65619 -7.54159,10.63903c-1.21204,4.84816 -3.36678,3.77079 -3.36678,-1.61605c0,-5.11751 -4.17481,-9.29232 -6.19488,-6.19488c-0.67336,1.07737 -1.21204,6.32955 -1.21204,11.7164c0,10.63903 -1.8854,13.33245 -6.19488,9.02297c-5.25218,-5.25218 -8.48429,-6.32955 -14.81384,-5.38685c-7.40692,1.07737 -16.56456,-2.28941 -14.14048,-5.25218c1.34671,-1.61605 2.55875,-6.19488 5.11751,-18.44996c0.40401,-2.55875 0,-3.77079 -1.61605,-4.44415c-3.50145,-1.21204 -5.65619,1.21204 -6.59889,7.67626c-0.67336,4.17481 -2.28941,7.0029 -6.19488,10.90837c-2.96277,2.96277 -5.38685,6.32955 -5.38685,7.54159c0,3.50145 -6.19488,9.42699 -9.69633,9.42699c-1.75073,0 -5.38685,-0.67336 -8.08027,-1.48138c-4.17481,-1.07737 -5.11751,-2.02007 -5.11751,-4.71349c0,-4.17481 -3.23211,-5.52152 -6.06021,-2.69342c-1.21204,1.21204 -2.8281,2.15474 -3.50145,2.15474c-2.42408,0 -1.21204,-2.96277 2.8281,-6.73356c3.63612,-3.50145 4.04014,-4.57882 4.04014,-12.6591c0,-7.0029 -0.40401,-8.8883 -2.02007,-8.8883c-1.07737,0 -2.42408,0 -2.96277,-0.13467c-0.53868,0 -2.15474,3.50145 -3.50145,7.81093c-2.96277,8.8883 -7.0029,15.21785 -9.831,15.21785c-1.07737,0 -2.69342,1.48138 -3.50145,3.36678c-1.61605,3.63612 -4.17481,4.30948 -6.46422,1.61605c-8.34962,-9.831 -10.90837,-14.27515 -9.56166,-16.96858c1.8854,-3.50145 1.8854,-7.27225 -0.13467,-9.29232c-1.34671,-1.34671 -2.69342,-0.67336 -6.19488,3.36678c-4.04014,4.57882 -4.44415,4.71349 -3.63612,1.75073c0.40401,-1.8854 1.21204,-7.27225 1.61605,-12.12041c0.53868,-7.13758 0.26934,-9.15764 -1.48138,-10.63903c-3.50145,-2.96277 -6.19488,0.40401 -6.19488,8.08027c0,7.40692 -1.8854,13.06311 -5.11751,15.48719c-2.42408,1.8854 -11.04304,2.55875 -11.04304,0.80803c0,-0.53868 -5.79086,-4.57882 -12.79377,-9.02297c-7.0029,-4.44415 -12.79377,-8.8883 -12.79377,-9.831c0,-0.9427 0.80803,-3.09744 1.8854,-4.71349c2.96277,-4.71349 5.11751,-17.23792 3.77079,-23.16345c-0.9427,-4.57882 -1.61605,-5.38685 -4.30948,-5.38685c-2.96277,0 -3.50145,0.80803 -4.71349,7.67626c-1.8854,10.63903 -3.77079,12.25508 -7.40692,5.92553c-1.61605,-2.69342 -3.36678,-4.84816 -4.04014,-4.84816c-2.02007,0 -3.77079,3.36678 -4.30948,7.9456c-0.53868,6.59889 -5.79086,7.81093 -20.87404,4.84816c-8.75363,-1.75073 -12.25508,-1.8854 -15.48719,-0.80803c-2.42408,0.80803 -4.84816,0.9427 -5.38685,0.40401c-1.61605,-1.61605 0.13467,-8.34962 2.42408,-9.29232c0.9427,-0.26934 2.42408,-2.8281 3.36678,-5.52152c0.80803,-2.8281 3.63612,-9.29232 6.06021,-14.67917c5.11751,-10.90837 5.52152,-13.6018 2.28941,-14.81384c-2.28941,-0.9427 -3.09744,0 -10.36969,10.36969c-2.55875,3.77079 -4.30948,5.11751 -5.11751,4.30948c-0.9427,-0.9427 -0.67336,-2.42408 0.80803,-4.44415c5.38685,-7.81093 -0.40401,-11.04304 -6.86823,-3.90547c-1.8854,2.15474 -3.77079,5.65619 -3.90547,7.67626c-0.80803,7.54159 -3.50145,16.02588 -6.06021,19.12332c-2.42408,2.96277 -2.96277,3.09744 -8.48429,1.61605c-3.36678,-0.80803 -9.69633,-1.48138 -14.00581,-1.48138c-9.831,0 -10.50436,-1.21204 -8.21495,-12.92844c0.9427,-4.57882 1.21204,-9.29232 0.80803,-10.50436c-1.48138,-3.63612 -5.79086,-2.55875 -7.67626,1.8854c-1.61605,3.77079 -5.38685,5.65619 -5.38685,2.69342c0,-0.80803 -1.48138,-1.34671 -3.36678,-1.34671c-3.50145,0 -3.50145,0.13467 -3.09744,10.23501c0.26934,11.31238 0.53868,11.04304 -10.23501,14.67917c-10.36969,3.50145 -13.06311,2.42408 -19.93134,-8.75363c-5.92553,-9.831 -7.0029,-11.7164 -11.31238,-20.73937c-1.48138,-2.96277 -3.23211,-6.06021 -4.17481,-6.86823c-0.80803,-0.9427 -3.23211,-4.30948 -5.11751,-7.54159c-10.10034,-17.10325 -12.12041,-26.12622 -7.67626,-35.28387c4.17481,-8.75363 7.0029,-15.75654 7.0029,-17.37259c0,-0.80803 2.42408,-6.19488 5.38685,-11.98574c2.96277,-5.79086 6.59889,-13.6018 8.08027,-17.37259c1.48138,-3.63612 3.90547,-9.96567 5.52152,-13.87114c5.79086,-14.40982 6.59889,-19.52733 6.06021,-41.34407c-0.40401,-11.44706 -1.21204,-23.97148 -1.8854,-27.6076c-0.80803,-3.77079 -2.15474,-12.25508 -3.09744,-18.85397c-0.80803,-6.73356 -2.42408,-15.35252 -3.36678,-19.39266c-2.15474,-8.61896 -1.34671,-10.63903 6.59889,-16.16055c3.09744,-2.15474 12.38975,-10.36969 20.47003,-18.31529c8.21495,-7.9456 16.69923,-15.21785 18.98865,-16.16055c2.28941,-1.07737 5.65619,-3.50145 7.40692,-5.38685c1.75073,-1.8854 5.11751,-4.57882 7.27225,-5.92553c4.44415,-2.8281 25.04885,-7.54159 38.3813,-8.8883l8.75363,-0.80803l8.61896,8.21495c5.25218,4.98284 9.15764,7.67626 9.96567,6.86823c0.67336,-0.67336 -0.67336,-4.98284 -3.63612,-10.7737c-5.79086,-11.58173 -6.06021,-14.54449 -0.9427,-8.48429c2.15474,2.55875 4.30948,3.90547 4.71349,3.23211c0.9427,-1.61605 -0.40401,-5.65619 -1.8854,-5.65619c-2.69342,0 -7.0029,-17.50726 -7.27225,-29.76234c-0.26934,-14.81384 2.42408,-12.92844 4.30948,3.09744c0.80803,7.40692 1.8854,13.87114 2.15474,14.27515c3.23211,3.23211 2.69342,-9.29232 -1.75073,-34.07182c-0.67336,-3.77079 -0.67336,-7.67626 -0.13467,-8.75363c1.21204,-2.02007 1.8854,0.67336 3.36678,14.81384c1.21204,11.31238 3.50145,18.85397 5.52152,18.85397c2.42408,0 2.42408,-1.61605 0.13467,-7.13758c-1.07737,-2.42408 -2.28941,-10.36969 -2.69342,-17.7766c-0.67336,-11.44706 -0.53868,-12.79377 0.80803,-9.15764c1.61605,4.30948 4.71349,5.65619 3.90547,1.75073c-1.07737,-4.57882 -2.42408,-21.00871 -1.8854,-23.29812c0.67336,-2.8281 2.96277,-3.09744 2.96277,-0.26934c0,1.07737 0.67336,2.02007 1.48138,2.02007c1.07737,0 1.21204,-2.55875 0.53868,-8.48429c-1.48138,-11.7164 -1.07737,-15.75654 1.75073,-23.29812c1.48138,-3.63612 2.96277,-9.02297 3.36678,-12.12041c1.07737,-7.0029 10.63903,-27.20359 15.48719,-32.99445c0.9427,-1.07737 3.50145,-4.30948 5.79086,-7.27225c2.28941,-2.96277 7.9456,-9.69633 12.6591,-14.81384c11.98574,-13.19778 20.6047,-23.29812 26.93425,-31.24373c3.09744,-3.90547 7.27225,-7.54159 9.831,-8.48429c4.84816,-1.75073 25.99155,-15.48719 30.83971,-20.06602c1.61605,-1.61605 3.50145,-2.8281 4.04014,-2.8281c2.55875,0 38.24663,-28.81965 41.07473,-33.2638c2.28941,-3.36678 18.7193,-15.21785 21.27806,-15.21785c1.61605,0 2.69342,-0.9427 2.69342,-2.15474c0,-2.69342 6.19488,-7.67626 10.63903,-8.61896c2.15474,-0.40401 4.30948,-2.28941 5.52152,-4.84816c1.07737,-2.28941 3.77079,-6.19488 5.92553,-8.61896c3.36678,-4.04014 3.90547,-4.30948 5.11751,-2.28941c1.21204,2.28941 5.11751,3.23211 5.11751,1.21204c0,-1.07737 7.9456,-10.90837 14.94851,-18.85397c5.25218,-5.65619 7.40692,-4.30948 3.90547,2.42408c-2.8281,5.52152 -3.50145,10.7737 -1.48138,10.7737c1.48138,0 4.84816,-5.11751 6.19488,-9.42699c2.55875,-8.34962 13.73647,-21.00871 16.29522,-18.44996c0.26934,0.26934 -1.75073,4.44415 -4.57882,9.15764c-11.04304,18.44996 -12.38975,21.27806 -10.90837,22.08608c1.75073,1.07737 1.48138,1.34671 5.38685,-5.52152c13.46712,-23.02878 19.25799,-31.51307 21.5474,-31.51307c1.48138,0 2.55875,0.26934 2.55875,0.53868c0,0.26934 -2.42408,4.84816 -5.52152,10.36969c-2.96277,5.52152 -6.59889,14.14048 -7.81093,19.12332c-2.02007,7.54159 -3.77079,10.7737 -9.56166,17.50726c-7.67626,8.75363 -24.91418,25.58754 -38.24663,37.16926c-4.44415,3.77079 -10.90837,11.44706 -14.54449,17.10325c-3.50145,5.52152 -9.96567,14.40982 -14.14048,19.662c-22.75944,28.01162 -26.39556,33.53314 -23.4328,35.41854c0.80803,0.40401 2.28941,-1.34671 3.36678,-4.04014c1.75073,-4.04014 4.84816,-6.59889 4.84816,-3.77079c0,2.15474 -3.36678,9.831 -4.30948,9.831c-0.53868,0 -1.07737,1.21204 -1.07737,2.69342c0,1.48138 0.9427,2.69342 2.02007,2.69342c1.07737,0 2.02007,-0.67336 2.02007,-1.48138c0,-2.8281 13.6018,-22.35543 16.69923,-23.97148c1.61605,-0.9427 4.17481,-3.63612 5.52152,-5.92553c3.63612,-6.32955 18.7193,-25.45286 28.14629,-35.68788c4.57882,-4.98284 9.69633,-11.17771 11.58173,-13.73647c1.75073,-2.55875 4.44415,-5.92553 5.79086,-7.40692c2.42408,-2.69342 2.42408,-2.69342 1.75073,1.61605c-0.53868,2.28941 -0.26934,4.57882 0.26934,4.98284c2.28941,1.34671 4.17481,-1.48138 4.71349,-7.27225c0.40401,-4.98284 0.67336,-5.52152 1.48138,-3.09744c0.67336,1.75073 2.02007,3.09744 3.09744,3.09744c1.61605,0 1.75073,-1.07737 1.07737,-5.52152c-0.67336,-4.17481 -0.53868,-5.38685 0.9427,-5.11751c0.9427,0.26934 3.36678,0 5.52152,-0.53868c2.8281,-0.80803 3.63612,-1.75073 3.63612,-4.84816c0,-4.98284 3.63612,-8.48429 4.30948,-4.04014c0.53868,4.17481 3.77079,4.98284 3.77079,0.9427c0,-4.04014 2.02007,-7.27225 3.23211,-5.25218c1.61605,2.55875 3.36678,0.40401 3.23211,-4.04014c-0.13467,-2.55875 0.9427,-5.25218 2.69342,-7.0029c3.63612,-3.50145 4.98284,-2.28941 3.23211,2.8281c-0.80803,2.28941 -0.80803,4.71349 -0.13467,5.79086c1.8854,3.23211 4.04014,-0.53868 4.84816,-8.75363c0.80803,-7.54159 2.02007,-9.42699 3.63612,-5.38685c1.34671,3.50145 3.77079,0.53868 2.8281,-3.50145c-1.34671,-6.06021 1.75073,-6.06021 3.36678,0c0.80803,2.96277 2.02007,5.38685 2.55875,5.38685c2.15474,0 2.69342,-3.77079 1.21204,-8.61896c-1.21204,-3.77079 -1.21204,-5.25218 0.13467,-6.59889c1.21204,-1.21204 1.75073,-0.9427 2.28941,1.48138c0.80803,2.96277 3.77079,4.04014 5.11751,1.75073c0.53868,-0.67336 0.26934,-2.69342 -0.40401,-4.44415c-0.80803,-2.15474 -0.67336,-3.90547 0.53868,-5.52152c2.28941,-3.23211 3.36678,-2.8281 3.36678,1.21204c0,2.55875 0.53868,3.36678 2.42408,2.96277c1.61605,-0.40401 2.15474,-1.61605 2.02007,-4.17481c-0.26934,-4.30948 1.75073,-4.84816 2.96277,-0.80803c1.21204,3.50145 3.90547,2.55875 4.44415,-1.48138c0.26934,-1.75073 1.48138,-3.90547 2.55875,-4.84816c1.48138,-0.9427 1.8854,-2.55875 1.21204,-4.98284c-0.9427,-4.17481 0.13467,-7.67626 2.69342,-7.67626c1.34671,0 1.8854,1.61605 1.8854,5.25218c0,7.13758 1.8854,7.9456 5.38685,2.28941c2.15474,-3.63612 2.55875,-5.92553 2.02007,-9.42699c-1.21204,-6.46422 2.15474,-8.08027 14.54449,-7.13758c5.65619,0.53868 13.46712,0.13467 19.662,-1.07737c5.65619,-0.9427 24.37549,-2.55875 41.74808,-3.23211c17.37259,-0.80803 31.91708,-1.8854 32.3211,-2.28941c0.40401,-0.40401 3.90547,-0.40401 7.54159,0.13467c3.77079,0.67336 8.8883,0.9427 11.44706,0.9427zm-514.84816,701.77184c0.53868,0.67336 -2.55875,24.91418 -3.63612,27.87695c-0.67336,1.8854 -1.61605,5.92553 -2.02007,8.8883c-0.67336,4.04014 -1.75073,6.06021 -4.17481,7.27225c-1.75073,1.07737 -3.23211,2.28941 -3.23211,2.96277c0,0.53868 -0.9427,1.07737 -2.02007,1.07737c-1.21204,0 -2.42408,0.80803 -2.8281,1.8854c-0.67336,1.61605 -3.23211,1.8854 -13.06311,1.34671c-6.86823,-0.26934 -13.87114,-0.53868 -15.75654,-0.53868c-1.8854,0 -4.30948,-0.53868 -5.38685,-1.34671c-1.61605,-1.07737 -1.61605,-1.61605 0,-4.98284c1.07737,-2.02007 2.42408,-4.04014 2.8281,-4.44415c0.40401,-0.40401 2.15474,-3.36678 4.04014,-6.73356c1.75073,-3.36678 3.63612,-6.32955 4.04014,-6.73356c0.40401,-0.40401 1.48138,-2.69342 2.42408,-5.11751c2.96277,-7.0029 13.46712,-17.37259 19.662,-18.98865c2.96277,-0.80803 6.32955,-2.15474 7.40692,-2.8281c1.61605,-1.07737 10.50436,-0.67336 11.7164,0.40401zm62.08344,12.52443c16.02588,0.9427 15.62186,0.26934 10.36969,16.42989c-1.75073,5.65619 -3.90547,13.06311 -4.71349,16.29522c-1.61605,6.19488 -8.48429,13.6018 -15.08318,16.42989c-3.09744,1.21204 -4.98284,1.07737 -10.7737,-1.34671c-3.90547,-1.61605 -8.8883,-4.44415 -11.04304,-6.19488c-3.63612,-2.96277 -3.90547,-4.04014 -5.25218,-17.50726c-1.07737,-12.52443 -0.9427,-14.94851 1.07737,-19.52733c2.69342,-6.06021 4.17481,-6.73356 14.14048,-5.92553c4.04014,0.26934 13.6018,0.80803 21.27806,1.34671zm-115.14391,5.11751c-0.80803,5.79086 -3.90547,11.58173 -6.06021,11.58173c-0.67336,0 -2.96277,1.34671 -5.11751,2.8281c-6.32955,4.71349 -8.48429,2.8281 -7.27225,-6.46422c0.53868,-4.30948 0.9427,-9.02297 0.80803,-10.50436c-0.13467,-2.42408 0.67336,-2.69342 9.15764,-2.8281l9.42699,0l-0.9427,5.38685zm144.63691,10.7737c1.34671,2.42408 12.92844,7.54159 16.96858,7.54159c3.77079,0 7.67626,3.77079 7.67626,7.40692c0,3.63612 -5.52152,11.44706 -13.73647,19.52733c-8.21495,7.9456 -13.6018,8.61896 -22.89411,2.69342c-6.06021,-3.77079 -6.32955,-4.17481 -5.65619,-9.02297c1.34671,-9.15764 5.79086,-22.4901 8.75363,-26.39556c3.36678,-3.90547 7.13758,-4.71349 8.8883,-1.75073zm53.32981,23.16345c4.44415,5.25218 6.46422,7.13758 11.7164,10.50436c5.25218,3.36678 5.38685,4.30948 2.02007,16.29522c-1.8854,6.86823 -5.92553,12.79377 -8.61896,12.79377c-0.40401,0 -4.57882,-0.9427 -9.15764,-2.02007c-8.34962,-2.02007 -16.42989,-5.79086 -21.27806,-10.10034c-1.48138,-1.34671 -4.04014,-3.09744 -5.65619,-3.90547c-1.75073,-0.80803 -3.09744,-2.55875 -3.09744,-3.90547c0,-6.06021 13.06311,-20.47003 18.7193,-20.6047c1.8854,0 4.71349,-0.53868 6.19488,-1.21204c4.44415,-1.8854 6.06021,-1.48138 9.15764,2.15474zm94.26987,12.79377c6.32955,2.55875 9.15764,3.90547 17.7766,8.48429c1.48138,0.80803 2.8281,1.48138 3.09744,1.61605c0.67336,0.26934 -4.17481,10.63903 -7.40692,15.48719c-3.09744,4.57882 -4.04014,5.25218 -8.75363,5.25218c-8.34962,0 -28.5503,-6.73356 -28.28096,-9.42699c0.26934,-4.57882 5.38685,-17.64193 8.08027,-20.6047c4.17481,-4.30948 6.32955,-4.44415 15.48719,-0.80803zm-31.3784,6.46422c0,2.55875 -10.23501,9.15764 -21.95141,13.87114c-10.90837,4.57882 -12.6591,4.84816 -16.02588,3.36678c-3.90547,-1.61605 -4.30948,-3.23211 -2.96277,-9.831c0.67336,-3.63612 1.21204,-3.90547 7.0029,-4.17481c16.16055,-0.67336 24.10615,-1.48138 27.20359,-2.8281c4.17481,-1.75073 6.73356,-2.02007 6.73356,-0.40401zm76.89728,9.42699c4.84816,4.84816 4.84816,6.86823 0.40401,12.12041c-3.23211,3.90547 -4.17481,4.17481 -12.12041,4.17481c-8.61896,0 -8.61896,0 -8.61896,-3.77079c0,-2.15474 0.9427,-6.59889 2.15474,-10.10034c2.15474,-6.32955 2.15474,-6.32955 8.21495,-6.32955c4.84816,0 6.73356,0.80803 9.96567,3.90547zm358.09083,21.68207c0,4.04014 -0.9427,10.10034 -2.02007,13.46712c-1.07737,3.36678 -2.28941,7.81093 -2.69342,9.831c-0.40401,2.15474 -1.48138,3.63612 -2.42408,3.23211c-1.21204,-0.40401 -1.61605,-6.86823 -1.75073,-23.70214c0,-22.35543 0,-23.29812 2.69342,-24.37549c2.55875,-0.9427 2.96277,-0.26934 4.44415,6.59889c0.9427,4.17481 1.61605,10.90837 1.75073,14.94851zm-101.81146,4.17481c1.8854,2.28941 3.50145,4.84816 3.50145,5.79086c0,1.75073 -10.36969,15.62186 -11.58173,15.62186c-0.26934,0 -2.28941,-2.8281 -4.44415,-6.32955l-4.04014,-6.32955l5.65619,-6.32955c3.09744,-3.50145 6.06021,-6.32955 6.59889,-6.46422c0.40401,-0.13467 2.42408,1.75073 4.30948,4.04014zm-17.91128,23.56747l4.17481,6.19488l-3.23211,3.50145c-1.8854,2.02007 -4.71349,5.65619 -6.46422,8.21495l-3.09744,4.57882l-2.8281,-3.50145c-1.61605,-1.8854 -4.04014,-5.65619 -5.38685,-8.34962l-2.69342,-4.84816l5.92553,-5.92553c3.23211,-3.36678 6.73356,-6.06021 7.67626,-6.06021c0.80803,0 3.50145,2.8281 5.92553,6.19488zm-112.45049,6.86823c0.9427,1.34671 1.8854,3.36678 1.8854,4.44415c0,2.42408 -16.02588,18.85397 -18.44996,18.85397c-1.8854,0 -9.02297,-13.46712 -7.81093,-14.54449c1.75073,-1.75073 18.98865,-10.90837 20.73937,-10.90837c1.07737,-0.13467 2.69342,0.9427 3.63612,2.15474zm127.12965,19.12332c-1.48138,1.8854 -4.57882,5.92553 -7.13758,8.75363l-4.57882,5.38685l-4.17481,-4.71349c-2.28941,-2.55875 -4.30948,-4.98284 -4.30948,-5.52152c0,-0.40401 3.50145,-4.17481 7.81093,-8.34962l7.67626,-7.54159l3.63612,4.30948c3.63612,4.17481 3.63612,4.17481 1.07737,7.67626zm-44.84552,-1.61605c7.0029,10.36969 7.13758,9.831 -3.63612,21.14338c-5.38685,5.65619 -10.36969,10.23501 -10.90837,10.23501c-0.9427,0 -6.59889,-8.34962 -6.59889,-9.96567c0,-0.40401 1.34671,-0.80803 3.09744,-0.80803c3.09744,0 6.32955,-2.15474 6.32955,-4.30948c0,-0.53868 -1.61605,-0.40401 -3.63612,0.40401c-6.59889,2.42408 -6.73356,-0.80803 -0.26934,-8.08027c6.59889,-7.40692 7.9456,-8.08027 7.9456,-4.17481c0,1.61605 0.9427,2.69342 2.15474,2.69342c1.8854,0 2.02007,-0.9427 1.34671,-5.38685c-0.9427,-6.32955 0.67336,-7.0029 4.17481,-1.75073zm-68.41299,5.79086c1.75073,2.42408 2.55875,4.71349 1.8854,5.79086c-2.96277,4.84816 -14.67917,18.44996 -15.89121,18.44996c-1.34671,0 -7.40692,-8.48429 -7.40692,-10.36969c0,-1.21204 8.34962,-9.831 9.56166,-9.831c0.53868,0 1.34671,1.48138 1.75073,3.36678c0.53868,1.8854 1.75073,3.36678 2.8281,3.36678c2.42408,0 2.28941,0.40401 0.67336,-5.25218c-1.21204,-4.44415 0.13467,-9.56166 2.42408,-9.56166c0.67336,0 2.42408,1.8854 4.17481,4.04014zm47.00026,21.81674c4.98284,7.81093 5.52152,5.92553 -6.46422,19.25799c-3.36678,3.77079 -8.34962,9.42699 -11.04304,12.52443l-4.98284,5.92553l-2.15474,-4.84816c-1.07737,-2.69342 -2.96277,-7.0029 -4.17481,-9.69633l-2.02007,-4.98284l12.52443,-12.52443c6.86823,-7.0029 12.79377,-12.6591 13.19778,-12.6591c0.40401,0 2.69342,3.23211 5.11751,7.0029zm-92.38447,25.31819c2.02007,3.36678 4.04014,6.73356 4.44415,7.54159c0.40401,0.80803 -2.69342,4.98284 -7.0029,9.42699c-4.30948,4.44415 -8.48429,9.15764 -9.42699,10.63903c-1.48138,2.69342 -1.48138,2.69342 -3.50145,0c-1.21204,-1.48138 -2.42408,-4.57882 -2.96277,-6.73356c-0.40401,-2.28941 -1.8854,-6.46422 -3.23211,-9.29232l-2.55875,-5.38685l3.50145,-3.77079c2.02007,-2.02007 4.17481,-3.77079 4.71349,-3.77079c0.67336,0 2.8281,-1.21204 4.71349,-2.69342c4.71349,-3.77079 6.86823,-3.09744 11.31238,4.04014zm60.33272,-2.02007c0,1.07737 1.61605,5.25218 3.63612,9.29232l3.50145,7.40692l-7.9456,9.56166c-15.21785,18.31529 -14.67917,17.50726 -12.92844,20.33536c1.34671,2.15474 1.21204,3.09744 -0.80803,5.25218c-2.55875,2.69342 -2.55875,2.69342 -9.29232,-7.0029c-10.63903,-15.48719 -10.50436,-15.35252 -6.86823,-20.73937c1.75073,-2.42408 3.77079,-4.57882 4.44415,-4.57882c0.80803,0.13467 3.09744,2.55875 5.11751,5.52152c2.15474,3.09744 4.17481,5.25218 4.44415,4.84816c0.9427,-0.80803 -1.8854,-6.19488 -4.44415,-8.75363c-0.9427,-0.9427 -1.75073,-2.55875 -1.75073,-3.50145c0,-1.48138 5.92553,-7.54159 7.40692,-7.54159c0.40401,0 2.15474,2.96277 4.04014,6.73356c1.8854,3.63612 4.30948,6.73356 5.38685,6.73356c2.96277,0 2.42408,-2.28941 -2.02007,-9.02297c-2.15474,-3.23211 -4.04014,-6.32955 -4.04014,-6.73356c0,-1.07737 9.831,-9.69633 11.17771,-9.831c0.53868,0 0.9427,0.9427 0.9427,2.02007zm-82.4188,22.62477c2.28941,6.06021 4.30948,11.7164 4.30948,12.52443c0,0.67336 -1.75073,2.42408 -4.04014,3.63612c-2.15474,1.34671 -4.04014,2.96277 -4.04014,3.77079c0,1.8854 3.50145,1.48138 5.38685,-0.80803c1.75073,-2.02007 5.38685,-2.8281 5.38685,-1.07737c0,1.34671 -8.34962,9.831 -9.69633,9.831c-0.53868,0 -1.07737,-0.9427 -1.07737,-2.02007c0,-1.07737 -0.53868,-2.02007 -1.34671,-2.02007c-0.67336,0 -1.34671,-0.80803 -1.34671,-1.61605c0,-0.9427 -2.15474,-5.25218 -4.84816,-9.42699c-2.96277,-4.84816 -4.30948,-8.48429 -3.63612,-9.42699c0.53868,-0.9427 1.07737,-2.8281 1.07737,-4.04014c0,-2.55875 6.06021,-10.36969 8.08027,-10.50436c0.80803,0 3.36678,4.98284 5.79086,11.17771zm36.36124,-1.07737c3.63612,5.65619 3.77079,7.67626 0.40401,10.63903c-1.34671,1.21204 -5.92553,7.40692 -10.23501,13.6018c-4.30948,6.32955 -7.9456,11.44706 -8.21495,11.44706c-1.48138,0 -7.40692,-15.21785 -6.19488,-16.02588c0.67336,-0.40401 4.17481,-5.11751 7.67626,-10.23501c11.98574,-17.50726 11.44706,-17.23792 16.56456,-9.42699zm9.42699,15.48719c2.28941,1.48138 4.30948,3.23211 4.30948,3.90547c0,0.80803 2.69342,4.71349 6.06021,8.75363c3.36678,4.17481 6.06021,7.9456 6.06021,8.48429c0,0.67336 -1.8854,3.09744 -4.17481,5.65619l-4.17481,4.44415l-8.8883,-0.9427c-4.98284,-0.67336 -11.31238,-0.9427 -14.00581,-0.80803c-6.46422,0.40401 -10.50436,-0.9427 -10.50436,-3.36678c0,-2.15474 15.62186,-26.12622 18.04595,-27.74228c2.02007,-1.48138 2.28941,-1.34671 7.27225,1.61605z" id="svg_2"/>
   <path stroke="null" d="m910.46915,123.98542c-0.53868,0.9427 -1.21204,4.17481 -1.34671,7.13758c-0.80803,14.54449 -2.15474,24.91418 -3.09744,25.58754c-0.67336,0.40401 -1.8854,-1.48138 -2.55875,-4.30948c-1.8854,-6.59889 -1.8854,-7.13758 0.40401,-11.44706c1.48138,-2.8281 1.61605,-4.71349 0.53868,-8.48429c-0.80803,-2.55875 -2.02007,-4.71349 -2.55875,-4.71349c-1.48138,0 -2.42408,7.0029 -1.61605,11.31238c0.67336,3.36678 0.53868,3.77079 -2.15474,2.8281c-3.90547,-1.21204 -5.25218,2.69342 -2.02007,6.19488c1.8854,2.15474 2.42408,4.98284 2.42408,14.40982c0.13467,9.42699 0.53868,11.7164 2.15474,11.7164c1.61605,0 1.8854,-1.61605 1.75073,-7.27225c-0.26934,-5.79086 0,-7.0029 1.21204,-5.79086c0.9427,0.9427 1.75073,5.38685 1.8854,9.831c0.13467,8.61896 2.15474,11.85107 5.65619,8.8883c1.48138,-1.21204 2.8281,-0.53868 6.19488,3.23211c2.28941,2.55875 5.11751,6.06021 6.19488,7.81093c1.07737,1.61605 4.98284,4.84816 8.61896,7.0029c3.63612,2.28941 7.54159,4.98284 8.48429,6.06021c1.07737,1.07737 2.55875,1.8854 3.36678,1.8854c0.80803,0 2.55875,0.9427 3.90547,2.15474c1.21204,1.07737 3.50145,2.28941 4.84816,2.42408c1.34671,0.26934 2.55875,1.75073 2.8281,3.23211c0.26934,1.61605 1.21204,2.96277 2.15474,2.96277c0.80803,0 2.69342,1.75073 3.90547,4.04014c1.34671,2.15474 4.04014,5.11751 6.19488,6.59889c2.15474,1.61605 4.17481,4.57882 4.71349,7.0029c0.67336,3.63612 1.21204,4.04014 3.90547,3.36678c2.69342,-0.67336 3.50145,0 5.38685,3.90547c1.21204,2.55875 2.8281,4.71349 3.63612,4.71349c0.67336,0 1.34671,1.21204 1.34671,2.69342c0,2.28941 0.80803,2.69342 3.63612,2.42408c3.09744,-0.40401 3.77079,0.26934 4.98284,4.30948c1.61605,5.38685 6.19488,11.31238 6.19488,7.9456c0,-1.21204 -0.9427,-5.25218 -2.02007,-9.02297c-1.8854,-5.92553 -5.11751,-9.96567 -9.69633,-11.7164c-0.13467,0 -0.9427,-6.73356 -1.75073,-14.81384c-1.07737,-9.69633 -2.28941,-15.62186 -3.77079,-17.23792c-3.36678,-3.77079 -5.11751,-0.53868 -2.42408,4.84816c3.50145,7.54159 2.42408,8.75363 -2.55875,2.96277c-3.90547,-4.44415 -4.71349,-6.46422 -4.71349,-11.7164c0,-3.50145 -0.67336,-6.73356 -1.48138,-7.13758c-0.67336,-0.53868 -2.02007,-2.42408 -2.69342,-4.44415c-1.07737,-2.55875 -1.61605,-3.09744 -2.96277,-1.75073c-1.21204,1.21204 -1.21204,2.15474 0.13467,4.17481c0.80803,1.48138 1.61605,4.30948 1.61605,6.19488c0,3.09744 -0.26934,3.36678 -2.02007,1.8854c-3.50145,-2.96277 -3.50145,-0.80803 0,4.44415c3.36678,4.71349 4.44415,10.36969 2.15474,10.36969c-0.53868,0 -2.8281,-2.55875 -4.84816,-5.65619c-3.50145,-5.25218 -3.63612,-6.19488 -2.8281,-15.89121c0.80803,-10.10034 0.80803,-10.36969 -2.55875,-12.12041c-1.8854,-1.07737 -3.09744,-2.69342 -2.8281,-3.63612c0.40401,-0.9427 0.13467,-2.02007 -0.67336,-2.42408c-0.67336,-0.53868 -1.61605,0.13467 -2.02007,1.21204c-1.61605,4.17481 -3.23211,2.02007 -3.23211,-4.30948c0,-12.25508 -3.90547,-17.91128 -4.17481,-6.06021c-0.26934,5.92553 -0.26934,6.06021 -1.07737,1.8854c-0.40401,-2.55875 -1.61605,-4.84816 -2.42408,-5.25218c-1.34671,-0.40401 -1.75073,1.8854 -1.75073,8.48429c0,6.59889 -0.40401,8.8883 -1.61605,8.48429c-2.28941,-0.80803 -2.8281,-10.10034 -1.21204,-19.39266c0.80803,-4.30948 1.21204,-7.9456 0.9427,-8.34962c-0.40401,-0.26934 -1.8854,-0.13467 -3.36678,0.40401c-2.42408,0.67336 -2.8281,2.02007 -2.96277,7.81093c-0.13467,13.6018 -2.42408,2.15474 -2.42408,-12.92844c-0.13467,-8.48429 -0.67336,-14.40982 -1.48138,-14.40982c-2.15474,0 -2.96277,5.79086 -2.42408,17.37259c0.26934,6.73356 -0.13467,10.7737 -0.9427,10.63903c-1.21204,0 -3.63612,-13.46712 -4.98284,-26.53023c-0.26934,-2.55875 -1.21204,-4.98284 -2.28941,-5.25218c-1.61605,-0.53868 -1.75073,1.21204 -0.9427,10.36969c0.40401,5.92553 0.53868,10.90837 0.13467,10.90837c-0.53868,0 -2.02007,-0.67336 -3.50145,-1.34671c-2.69342,-1.48138 -2.8281,-3.77079 -0.40401,-25.99155c0.67336,-6.06021 -0.80803,-8.21495 -3.09744,-4.71349z" id="svg_3"/>
   <path stroke="null" d="m1028.84518,311.17845c-2.42408,2.42408 -2.02007,7.40692 0.9427,13.06311c3.50145,6.46422 5.38685,15.89121 4.57882,21.5474c-0.40401,2.42408 -0.13467,4.84816 0.53868,5.38685c3.63612,2.42408 7.54159,13.46712 8.21495,22.89411c0.53868,9.15764 0.26934,10.50436 -3.90547,19.12332l-4.57882,9.29232l-6.73356,0c-7.81093,0 -20.47003,-1.8854 -32.99445,-4.71349c-7.0029,-1.61605 -11.17771,-1.75073 -20.87404,-0.67336c-38.78532,4.44415 -63.02614,4.44415 -78.37866,0c-4.84816,-1.34671 -6.06021,-1.34671 -7.81093,0.40401c-2.96277,2.96277 -2.55875,3.63612 1.75073,2.8281c2.02007,-0.40401 6.32955,0.26934 9.69633,1.48138c4.71349,1.8854 11.44706,2.42408 30.97439,2.69342c13.73647,0.13467 26.39556,-0.26934 28.28096,-0.9427c2.96277,-1.07737 22.89411,-2.8281 30.30103,-2.69342c1.48138,0 7.54159,1.21204 13.46712,2.69342c12.92844,3.23211 33.80248,5.65619 48.07763,5.65619c9.69633,0 10.63903,-0.26934 12.79377,-3.50145c1.75073,-2.8281 1.8854,-4.04014 0.67336,-6.06021c-0.9427,-1.34671 -1.61605,-3.36678 -1.61605,-4.44415c0,-0.9427 -0.9427,-2.55875 -2.02007,-3.50145c-1.07737,-0.9427 -3.36678,-6.06021 -4.98284,-11.31238c-1.48138,-5.25218 -4.44415,-13.87114 -6.46422,-18.98865c-2.02007,-5.25218 -4.44415,-14.14048 -5.38685,-19.93134c-0.9427,-5.79086 -2.28941,-10.7737 -2.8281,-11.17771c-0.67336,-0.40401 -1.21204,-1.8854 -1.21204,-3.23211c0,-1.34671 -1.48138,-4.17481 -3.36678,-6.19488c-2.02007,-2.15474 -3.09744,-4.57882 -2.69342,-5.92553c0.9427,-3.09744 -2.28941,-5.92553 -4.44415,-3.77079z" id="svg_4"/>
   <path stroke="null" d="m429.69282,347.27034c-4.44415,1.75073 -4.04014,5.38685 0.67336,5.38685c2.02007,0 5.79086,1.07737 8.34962,2.42408c2.55875,1.34671 7.13758,2.55875 10.10034,2.69342c7.40692,0.40401 10.23501,1.48138 14.14048,4.98284c1.8854,1.61605 7.13758,4.04014 11.85107,5.52152c4.57882,1.34671 8.34962,2.8281 8.34962,3.50145c0,1.48138 -0.67336,1.34671 -12.12041,-1.75073c-5.52152,-1.48138 -15.21785,-3.63612 -21.5474,-4.57882c-6.32955,-1.07737 -13.19778,-2.42408 -15.21785,-3.23211c-3.77079,-1.48138 -75.01188,-5.52152 -95.88592,-5.52152c-13.33245,0 -29.35833,3.23211 -45.11487,8.8883c-5.52152,2.02007 -13.06311,4.71349 -16.83391,6.06021c-3.63612,1.21204 -6.86823,3.36678 -7.13758,4.44415c-0.26934,1.21204 -0.9427,2.15474 -1.48138,2.15474c-0.53868,0 -2.42408,2.8281 -4.17481,6.19488c-2.69342,5.11751 -3.23211,8.21495 -3.23211,17.7766c-0.13467,10.50436 0.26934,12.38975 3.77079,18.04595c2.42408,4.30948 4.71349,6.46422 6.46422,6.46422c2.02007,0 2.42408,-0.53868 1.75073,-2.42408c-0.53868,-1.21204 -1.21204,-3.50145 -1.61605,-4.98284c-0.40401,-1.48138 -1.48138,-4.57882 -2.55875,-7.0029c-2.15474,-4.84816 -2.42408,-16.16055 -0.67336,-21.14338c1.75073,-4.30948 9.29232,-12.12041 15.08318,-15.35252c2.55875,-1.34671 9.15764,-3.90547 14.67917,-5.52152c5.52152,-1.61605 11.58173,-3.50145 13.46712,-4.17481c12.12041,-4.30948 43.76815,-4.71349 53.19514,-0.80803c6.06021,2.55875 13.33245,2.69342 21.41273,0.53868c4.57882,-1.21204 10.63903,-1.21204 26.66491,0.13467c27.47293,2.15474 40.94006,5.25218 49.42435,11.31238c5.65619,4.17481 6.86823,4.57882 8.21495,2.8281c2.28941,-2.55875 5.38685,-2.42408 13.06311,0.9427c8.08027,3.63612 15.21785,5.38685 24.64484,6.19488c7.27225,0.53868 7.54159,0.40401 15.21785,-5.92553c8.61896,-7.13758 14.67917,-17.37259 11.04304,-18.7193c-0.9427,-0.40401 -3.90547,0.26934 -6.46422,1.48138c-3.90547,1.8854 -5.25218,1.8854 -7.54159,0.53868c-2.42408,-1.61605 -3.50145,-1.21204 -9.69633,3.09744c-6.19488,4.30948 -7.27225,4.57882 -10.7737,3.36678c-2.42408,-0.9427 -3.90547,-2.55875 -3.90547,-4.04014c0,-1.8854 -0.67336,-2.28941 -2.55875,-1.61605c-1.48138,0.40401 -2.96277,0.13467 -3.36678,-0.53868c-1.48138,-2.42408 -17.10325,-9.69633 -27.6076,-12.92844c-20.20069,-6.19488 -26.26089,-7.0029 -32.05176,-4.71349z" id="svg_5"/>
   <path stroke="null" d="m568.4042,369.62577c-6.86823,3.77079 -8.48429,5.38685 -8.48429,8.08027c0,4.44415 2.69342,5.25218 11.17771,3.36678c14.27515,-3.09744 34.34117,-5.38685 47.53895,-5.52152c9.29232,0 15.35252,-0.67336 18.7193,-2.15474c2.8281,-1.07737 5.92553,-1.75073 7.0029,-1.34671c0.9427,0.40401 4.57882,0 7.81093,-0.80803c5.11751,-1.34671 7.27225,-1.21204 16.42989,1.34671c6.06021,1.75073 17.7766,3.63612 27.74228,4.30948c10.36969,0.80803 18.7193,2.15474 21.14338,3.36678c2.15474,1.07737 5.11751,2.02007 6.59889,2.02007c1.48138,0 3.09744,0.53868 3.50145,1.34671c0.40401,0.67336 2.15474,1.34671 3.77079,1.34671c1.61605,0 4.71349,0.9427 6.86823,2.02007c5.11751,2.69342 5.79086,2.55875 6.73356,-1.61605c1.34671,-4.98284 -1.21204,-6.86823 -10.63903,-7.81093c-7.27225,-0.80803 -14.54449,-2.42408 -27.06892,-6.19488c-2.28941,-0.67336 -9.29232,-1.21204 -15.62186,-1.21204c-7.9456,0 -14.40982,-0.9427 -20.73937,-2.8281c-8.61896,-2.69342 -10.10034,-2.69342 -23.4328,-1.21204c-7.81093,0.9427 -23.56747,2.02007 -35.01452,2.28941c-11.44706,0.26934 -21.41273,1.07737 -22.08608,1.75073c-0.67336,0.67336 -2.28941,-0.13467 -3.77079,-2.15474c-3.63612,-4.44415 -8.21495,-4.17481 -18.18062,1.61605z" id="svg_6"/>
   <path stroke="null" d="m802.32815,366.663c0,1.07737 -1.61605,2.15474 -3.63612,2.55875c-17.10325,3.50145 -18.18062,4.04014 -28.5503,14.54449c-16.02588,16.29522 -21.14338,35.68788 -14.00581,52.38711c1.21204,2.55875 2.42408,6.46422 2.96277,8.61896c0.53868,2.55875 2.42408,4.71349 5.38685,6.32955c4.04014,2.15474 7.27225,2.42408 25.58754,1.8854c12.92844,-0.26934 21.5474,0 22.62477,0.80803c4.04014,3.50145 18.85397,-3.90547 29.08899,-14.40982c5.65619,-5.79086 6.06021,-7.67626 2.42408,-10.23501c-1.34671,-0.9427 -2.8281,-3.09744 -3.36678,-4.84816c-1.21204,-3.77079 -2.69342,-3.77079 -5.25218,0.26934c-4.04014,6.06021 -6.46422,7.81093 -8.48429,6.06021c-1.07737,-0.80803 -1.8854,-2.69342 -1.8854,-4.04014c0,-1.48138 -0.9427,-2.55875 -2.15474,-2.55875c-1.34671,0 -1.75073,-0.80803 -1.21204,-2.55875c0.80803,-2.8281 -0.40401,-6.86823 -2.15474,-6.86823c-0.67336,0 -1.48138,1.48138 -2.02007,3.36678c-0.67336,2.69342 -1.48138,3.23211 -3.77079,2.55875c-2.69342,-0.67336 -2.96277,-0.26934 -2.55875,3.77079c0.53868,4.98284 -2.8281,10.50436 -4.98284,8.34962c-0.67336,-0.67336 -1.61605,-3.09744 -2.15474,-5.38685c-0.67336,-3.23211 0,-4.84816 3.36678,-8.48429c4.84816,-5.25218 4.98284,-5.52152 1.61605,-5.52152c-1.48138,0 -3.90547,1.61605 -5.38685,3.50145c-2.28941,2.96277 -3.09744,3.23211 -4.84816,1.8854c-1.61605,-1.34671 -2.15474,-1.21204 -2.8281,0.80803c-1.34671,4.57882 -2.8281,6.59889 -4.84816,7.0029c-3.63612,0.67336 -3.77079,-4.84816 -0.26934,-10.90837c3.63612,-6.46422 4.04014,-9.02297 1.34671,-9.02297c-1.07737,0 -2.8281,2.28941 -4.04014,4.98284c-1.8854,4.71349 -2.15474,4.84816 -2.96277,2.15474c-0.40401,-1.75073 -1.34671,-2.69342 -2.02007,-2.42408c-0.53868,0.40401 -0.67336,1.75073 -0.26934,2.96277c0.53868,1.48138 0.26934,1.8854 -1.07737,1.48138c-4.17481,-1.34671 -2.8281,-6.19488 3.36678,-11.31238c5.11751,-4.30948 5.79086,-5.38685 4.04014,-6.32955c-1.61605,-0.9427 -3.63612,0.13467 -8.08027,4.57882c-3.23211,3.23211 -5.92553,5.11751 -5.92553,4.44415c0,-2.69342 7.67626,-12.12041 13.6018,-16.96858c7.9456,-6.32955 10.90837,-7.81093 16.42989,-7.81093c3.23211,0 5.25218,-0.80803 6.46422,-2.8281c1.75073,-2.55875 2.42408,-2.55875 8.61896,-1.21204c3.77079,0.80803 9.02297,3.09744 11.85107,4.98284c4.84816,3.36678 5.25218,3.36678 7.40692,1.21204c2.15474,-2.15474 2.02007,-2.55875 -1.34671,-5.52152c-4.84816,-4.17481 -17.37259,-8.75363 -23.97148,-8.75363c-2.96277,0 -5.38685,-0.53868 -5.38685,-1.07737c0,-0.67336 -1.48138,-1.8854 -3.36678,-2.69342c-2.69342,-1.21204 -3.36678,-1.21204 -3.36678,0.26934z" id="svg_7"/>
   <path stroke="null" d="m680.45067,406.25635c-7.67626,8.34962 -10.36969,11.17771 -28.14629,28.5503c-8.75363,8.48429 -18.18062,18.18062 -20.87404,21.5474c-6.59889,8.21495 -12.25508,13.33245 -15.89121,14.27515c-3.23211,0.9427 -4.04014,3.09744 -1.75073,5.38685c0.80803,0.80803 -1.21204,3.77079 -6.06021,8.61896c-4.04014,4.04014 -7.40692,7.81093 -7.40692,8.48429c0,0.53868 -2.42408,4.71349 -5.38685,9.02297c-2.96277,4.30948 -5.38685,8.21495 -5.38685,8.75363c0,0.40401 -2.96277,4.57882 -6.59889,9.15764c-8.8883,11.31238 -17.7766,29.35833 -23.16345,47.40428c-3.63612,12.38975 -4.30948,16.83391 -4.30948,27.47293c0.13467,11.85107 0.40401,12.92844 4.30948,18.31529c2.28941,3.23211 4.17481,6.46422 4.17481,7.27225c0,0.80803 3.23211,3.77079 7.13758,6.86823c18.44996,14.14048 21.68207,16.02588 31.64774,18.7193c4.98284,1.34671 11.7164,3.63612 15.08318,5.11751c11.44706,5.25218 16.02588,6.06021 25.18352,5.11751c9.29232,-0.9427 13.87114,-3.90547 13.87114,-8.75363c0,-2.15474 -0.9427,-2.69342 -4.30948,-2.69342c-7.0029,0 -10.50436,-1.48138 -10.50436,-4.17481c0,-1.48138 -0.9427,-2.55875 -2.02007,-2.55875c-2.42408,0 -2.55875,1.61605 -0.40401,3.77079c2.15474,2.15474 -0.26934,2.15474 -7.13758,0c-5.52152,-1.61605 -6.59889,-3.63612 -3.23211,-6.46422c2.42408,-2.02007 2.69342,-6.73356 0.40401,-6.73356c-0.9427,0.13467 -3.90547,3.09744 -6.46422,6.73356c-4.57882,6.46422 -4.84816,6.59889 -10.10034,5.79086c-2.96277,-0.40401 -6.46422,-1.34671 -7.81093,-2.02007c-2.15474,-1.07737 -2.28941,-1.61605 -0.53868,-3.50145c3.36678,-4.17481 5.52152,-11.04304 3.90547,-12.6591c-1.21204,-1.21204 -2.02007,-0.26934 -3.50145,3.23211c-3.09744,7.27225 -4.84816,8.08027 -11.31238,5.52152c-3.09744,-1.21204 -5.65619,-2.69342 -5.65619,-3.36678c0,-1.48138 4.04014,-9.56166 5.25218,-10.50436c3.90547,-3.09744 5.52152,-16.16055 2.02007,-16.16055c-1.21204,0 -1.8854,0.80803 -1.48138,1.75073c0.67336,1.8854 -8.48429,21.41273 -10.50436,22.08608c-0.67336,0.13467 -3.09744,-0.9427 -5.25218,-2.69342l-3.77079,-3.09744l7.40692,-9.831c9.02297,-12.12041 10.90837,-15.48719 9.96567,-18.18062c-1.34671,-3.50145 -2.8281,-2.42408 -5.92553,4.17481c-1.75073,3.63612 -6.19488,9.831 -9.96567,13.87114l-6.86823,7.40692l-2.28941,-3.23211c-4.57882,-6.86823 -5.38685,-10.23501 -3.36678,-14.40982c2.28941,-4.44415 23.56747,-27.06892 29.35833,-31.10906c2.96277,-2.02007 3.63612,-3.23211 2.8281,-5.65619c-0.80803,-2.8281 -1.07737,-2.8281 -7.13758,2.8281c-3.50145,3.23211 -8.08027,7.27225 -10.36969,9.15764c-2.15474,1.8854 -6.32955,6.32955 -9.15764,9.831c-2.8281,3.50145 -5.65619,6.32955 -6.19488,6.32955c-0.53868,0 -0.26934,-3.50145 0.53868,-7.67626c1.21204,-6.19488 2.02007,-7.81093 4.17481,-7.81093c1.48138,0 2.69342,-1.07737 3.09744,-2.69342c0.26934,-1.48138 5.92553,-8.21495 12.52443,-14.81384c13.87114,-13.87114 16.83391,-17.7766 14.94851,-19.662c-0.80803,-0.80803 -6.19488,3.63612 -14.94851,12.52443c-7.54159,7.54159 -14.00581,13.33245 -14.54449,12.92844c-0.40401,-0.53868 0.40401,-4.04014 1.75073,-8.08027c1.8854,-5.52152 3.23211,-7.27225 5.65619,-7.54159c1.61605,-0.26934 5.25218,-2.96277 7.9456,-5.92553c2.69342,-3.09744 9.42699,-8.8883 14.94851,-13.06311c9.96567,-7.54159 12.79377,-10.90837 9.15764,-10.90837c-2.8281,0 -11.85107,6.46422 -20.47003,14.67917c-4.17481,3.90547 -7.81093,6.86823 -8.21495,6.46422c-0.40401,-0.40401 1.48138,-4.71349 4.17481,-9.56166c4.98284,-8.8883 13.33245,-16.29522 26.26089,-23.16345c11.04304,-5.92553 26.93425,-15.89121 26.93425,-16.96858c0,-2.8281 -7.0029,0.13467 -25.18352,10.7737c-11.31238,6.59889 -13.46712,7.0029 -10.23501,1.8854c7.54159,-11.85107 12.25508,-15.75654 30.03169,-24.51017c16.16055,-7.9456 20.06602,-11.04304 15.89121,-12.38975c-0.9427,-0.40401 -6.46422,2.02007 -12.25508,5.25218c-5.92553,3.23211 -10.90837,5.79086 -11.17771,5.52152c-0.80803,-0.9427 8.48429,-11.58173 12.92844,-14.81384c2.55875,-1.8854 10.23501,-5.65619 16.83391,-8.34962c6.73356,-2.8281 13.06311,-5.52152 14.14048,-6.06021c2.42408,-1.34671 2.69342,-4.44415 0.40401,-5.25218c-0.9427,-0.26934 -1.75073,0.40401 -1.75073,1.61605c0,1.48138 -1.21204,2.15474 -3.90547,2.15474c-2.15474,0 -6.06021,0.9427 -8.8883,2.15474c-2.69342,1.07737 -5.25218,1.75073 -5.65619,1.48138c-0.80803,-0.9427 5.92553,-7.0029 10.23501,-9.29232c9.96567,-5.11751 24.77951,-18.18062 23.83681,-20.87404c-0.40401,-1.07737 -0.40401,-3.50145 0,-5.38685c0.67336,-2.69342 1.61605,-3.23211 4.04014,-2.69342c2.96277,0.53868 3.23211,0.13467 3.23211,-4.44415c0,-2.8281 -0.67336,-5.38685 -1.61605,-5.65619c-0.9427,-0.26934 -4.17481,2.15474 -7.13758,5.38685z" id="svg_8"/>
   <path stroke="null" d="m372.32287,420.93551c-0.53868,0.40401 -0.9427,1.8854 -0.9427,3.09744c0,1.61605 -2.42408,2.55875 -10.10034,3.90547c-10.63903,1.8854 -14.14048,1.48138 -14.14048,-1.8854c0,-3.09744 -2.55875,-2.42408 -3.90547,1.21204c-1.48138,3.77079 -3.90547,4.84816 -11.04304,4.84816c-2.96277,0 -7.0029,0.80803 -9.02297,1.8854c-2.02007,0.9427 -5.79086,2.28941 -8.34962,2.69342c-22.75944,4.30948 -28.01162,6.59889 -23.4328,10.36969c1.48138,1.21204 2.69342,1.21204 5.25218,0.13467c6.59889,-3.09744 9.56166,-4.17481 14.00581,-5.11751l4.57882,-0.80803l-0.9427,5.79086c-0.53868,3.23211 -1.21204,15.35252 -1.61605,26.79958c-0.67336,20.47003 -1.21204,22.75944 -5.52152,22.89411c-0.80803,0 -2.02007,-0.67336 -2.42408,-1.34671c-0.40401,-0.80803 -1.61605,-1.34671 -2.69342,-1.34671c-1.21204,0 -1.75073,1.8854 -1.75073,6.19488c0,3.90547 -0.80803,7.13758 -2.15474,8.34962c-2.02007,2.02007 -2.15474,1.75073 -2.15474,-3.36678c0,-10.23501 -5.52152,-8.08027 -9.29232,3.63612c-0.80803,2.55875 -3.09744,9.56166 -4.98284,15.48719c-2.55875,7.67626 -3.77079,14.27515 -4.04014,22.4901c-0.13467,6.46422 -0.67336,13.46712 -1.21204,15.62186c-0.53868,2.55875 0.13467,6.73356 1.75073,11.44706c1.48138,4.17481 3.09744,9.96567 3.63612,13.06311c0.53868,3.09744 1.75073,7.27225 2.8281,9.15764c1.07737,2.02007 1.8854,4.44415 1.8854,5.52152c0,1.07737 0.80803,2.96277 1.8854,4.04014c0.9427,1.21204 4.17481,6.59889 6.86823,11.98574c3.77079,7.0029 7.0029,11.17771 11.7164,14.81384c3.63612,2.69342 6.86823,6.32955 7.27225,7.9456c0.53868,1.75073 1.34671,3.23211 2.02007,3.23211c0.67336,0.13467 2.02007,0.26934 2.8281,0.40401c0.9427,0 2.02007,1.8854 2.42408,4.17481c0.40401,2.55875 1.61605,4.17481 3.50145,4.71349c1.48138,0.40401 4.71349,2.28941 7.0029,4.30948c3.50145,2.96277 4.30948,4.57882 4.44415,9.42699c0.13467,5.52152 0.26934,5.65619 1.61605,2.02007c0.80803,-2.02007 1.75073,-3.63612 2.15474,-3.63612c0.40401,0 4.04014,3.09744 7.9456,6.73356c6.32955,6.19488 7.0029,7.40692 7.0029,12.79377c0,6.46422 0.67336,7.13758 4.71349,4.17481c2.28941,-1.75073 2.42408,-2.28941 0.80803,-5.38685c-2.15474,-3.90547 -2.02007,-4.17481 2.15474,-5.38685c2.55875,-0.80803 3.36678,-0.26934 4.44415,2.55875c1.75073,4.57882 1.75073,19.52733 0,19.52733c-0.67336,0 -1.34671,-1.8854 -1.34671,-4.04014c0,-2.69342 -0.67336,-4.04014 -2.02007,-4.04014c-1.61605,0 -2.02007,1.61605 -1.75073,7.67626c0.40401,7.40692 1.75073,10.36969 4.04014,9.02297c0.53868,-0.40401 1.07737,-2.15474 1.07737,-4.04014c0,-2.55875 0.67336,-3.23211 3.36678,-3.23211c3.50145,0 4.44415,-1.8854 1.8854,-3.50145c-0.9427,-0.53868 -1.21204,-2.96277 -0.80803,-6.46422c0.40401,-3.09744 0.26934,-7.81093 -0.26934,-10.63903c-1.07737,-4.30948 -0.80803,-4.98284 1.07737,-4.98284c2.8281,0 5.52152,5.25218 5.52152,10.7737c0,2.55875 0.67336,4.04014 1.8854,4.04014c2.42408,0 3.77079,-11.7164 1.75073,-15.08318c-0.9427,-1.48138 -1.07737,-2.69342 -0.26934,-3.50145c0.80803,-0.53868 9.56166,-4.84816 19.52733,-9.56166c37.57328,-17.7766 41.2094,-19.93134 55.88857,-35.28387c16.96858,-17.64193 22.22075,-22.4901 22.22075,-20.73937c0,0.9427 -0.53868,2.02007 -1.07737,2.28941c-0.67336,0.13467 -2.55875,2.55875 -4.44415,5.11751c-1.75073,2.69342 -8.48429,11.17771 -14.94851,18.85397c-12.25508,14.67917 -23.97148,25.31819 -31.10906,27.74228c-5.11751,1.75073 -5.92553,5.65619 -1.48138,6.73356c8.48429,2.15474 33.53314,-21.41273 55.75389,-52.79113c6.06021,-8.61896 17.10325,-30.16636 18.7193,-36.63058c0.67336,-2.69342 2.28941,-8.8883 3.50145,-13.73647c1.21204,-4.84816 1.8854,-11.31238 1.61605,-14.54449c-0.67336,-6.19488 0.67336,-8.21495 3.77079,-5.65619c3.09744,2.55875 2.55875,-1.21204 -0.53868,-4.57882c-1.48138,-1.61605 -3.63612,-6.86823 -4.71349,-11.85107c-1.8854,-7.9456 -3.77079,-12.25508 -9.56166,-21.5474c-0.67336,-1.07737 -4.57882,-5.79086 -8.34962,-10.36969c-3.90547,-4.57882 -7.13758,-9.56166 -7.13758,-11.04304c0,-1.48138 -1.34671,-3.09744 -2.96277,-3.77079c-1.75073,-0.67336 -4.84816,-4.04014 -7.0029,-7.40692c-2.15474,-3.36678 -4.71349,-6.19488 -5.65619,-6.19488c-2.02007,0 -8.61896,-7.67626 -8.61896,-10.10034c0,-0.9427 -0.9427,-2.02007 -2.02007,-2.55875c-1.07737,-0.40401 -2.02007,-0.13467 -2.02007,0.53868c0,2.69342 -3.09744,1.21204 -12.52443,-5.79086c-5.38685,-4.04014 -10.7737,-7.67626 -12.12041,-8.08027c-1.34671,-0.53868 -2.02007,-1.61605 -1.48138,-2.42408c1.34671,-2.28941 -2.28941,-3.90547 -4.84816,-2.15474c-3.36678,2.02007 -10.7737,-1.21204 -10.7737,-4.71349c0,-2.28941 -0.67336,-2.55875 -4.04014,-1.75073c-3.09744,0.67336 -4.04014,0.40401 -4.04014,-1.21204c0,-2.42408 -5.11751,-6.19488 -8.34962,-6.19488c-1.34671,0 -2.42408,0.9427 -2.42408,2.02007c0,1.48138 -1.61605,2.02007 -6.06021,2.02007c-5.25218,0 -6.32955,-0.53868 -7.67626,-3.36678c-1.48138,-3.50145 -2.55875,-4.04014 -4.17481,-2.42408zm-30.97439,19.52733c-0.40401,2.42408 -1.48138,7.9456 -2.15474,12.38975c-1.34671,7.27225 -4.30948,12.92844 -7.0029,12.92844c-0.67336,0 -2.02007,-1.8854 -3.23211,-4.04014c-1.21204,-2.28941 -2.69342,-4.04014 -3.36678,-4.04014c-2.15474,0 -1.48138,4.17481 1.48138,9.02297l2.8281,4.57882l-3.90547,4.98284c-2.15474,2.69342 -4.71349,6.32955 -5.65619,7.9456c-2.8281,5.38685 -4.17481,3.36678 -4.17481,-6.06021c0,-8.34962 2.69342,-36.63058 3.50145,-37.84262c0.67336,-0.67336 15.48719,-3.90547 19.25799,-4.04014c2.8281,-0.13467 3.09744,0.26934 2.42408,4.17481z" id="svg_9"/>
   <path stroke="null" d="m498.77917,431.70921c-1.75073,1.75073 -0.67336,4.84816 3.23211,8.75363c2.28941,2.15474 4.04014,5.11751 4.04014,6.46422c0,1.34671 0.53868,2.8281 1.21204,3.23211c0.67336,0.40401 1.61605,2.42408 2.15474,4.44415c0.40401,2.15474 1.61605,4.71349 2.69342,5.79086c0.9427,1.07737 2.55875,6.19488 3.50145,11.31238c1.21204,6.06021 2.96277,10.63903 4.84816,12.79377c4.71349,4.98284 6.06021,2.02007 3.09744,-6.73356c-1.34671,-4.04014 -3.23211,-11.31238 -3.90547,-16.02588c-0.80803,-4.98284 -2.55875,-10.23501 -4.17481,-12.12041c-1.48138,-1.8854 -4.84816,-6.46422 -7.54159,-10.36969c-4.71349,-6.73356 -7.54159,-9.15764 -9.15764,-7.54159z" id="svg_10"/>
   <path stroke="null" d="m161.69705,434.26796c-0.40401,1.21204 0.40401,4.30948 1.75073,7.0029c1.34671,2.8281 2.69342,5.38685 2.96277,5.92553c0.26934,0.67336 -0.13467,1.07737 -0.9427,1.07737c-0.9427,0 -2.02007,-1.07737 -2.42408,-2.42408c-1.07737,-2.8281 -6.06021,-9.96567 -7.81093,-11.31238c-2.42408,-1.8854 -4.71349,-1.07737 -4.71349,1.48138c0,1.48138 0.67336,3.09744 1.48138,3.50145c1.8854,1.21204 4.04014,7.27225 3.09744,8.8883c-1.34671,2.28941 -5.79086,-1.48138 -9.42699,-8.21495c-2.28941,-4.30948 -4.57882,-6.73356 -6.19488,-6.73356c-2.96277,0 -2.96277,-0.26934 0.26934,8.08027l2.69342,6.73356l-9.15764,0.13467c-4.98284,0.13467 -9.96567,0.13467 -11.04304,0c-3.50145,-0.26934 -25.31819,6.19488 -29.89702,8.8883c-4.30948,2.55875 -4.44415,2.8281 -4.04014,11.31238c0.26934,6.59889 1.48138,10.7737 4.98284,17.64193c6.86823,13.6018 11.44706,34.74518 7.40692,34.74518c-2.02007,0 -1.61605,3.50145 0.40401,5.25218c1.07737,0.80803 2.55875,4.98284 3.50145,9.15764c2.96277,13.6018 4.71349,18.44996 8.48429,22.75944c3.63612,4.04014 3.63612,4.44415 2.15474,11.85107c-1.75073,8.21495 -3.23211,9.56166 -4.57882,4.17481c-1.07737,-4.44415 -2.02007,-3.36678 -4.17481,4.44415c-2.02007,7.81093 -2.15474,13.73647 -0.40401,13.73647c0.80803,0 1.34671,-1.75073 1.34671,-4.04014c0,-2.55875 0.9427,-4.44415 2.55875,-5.25218c2.15474,-1.21204 2.69342,-0.9427 3.36678,1.8854c0.67336,2.69342 0,4.17481 -2.8281,6.73356c-2.15474,1.75073 -4.84816,3.36678 -6.06021,3.36678c-3.09744,0 -3.36678,6.46422 -0.40401,7.54159c5.52152,2.15474 32.05176,-23.56747 35.95722,-34.87985c1.48138,-4.04014 3.90547,-4.71349 6.46422,-1.61605c1.34671,1.61605 1.34671,2.42408 -0.13467,4.30948c-1.07737,1.34671 -2.42408,3.23211 -3.23211,4.30948c-0.67336,1.07737 -7.54159,8.34962 -15.08318,16.02588c-7.67626,7.67626 -13.87114,14.81384 -13.87114,15.89121c0,2.28941 2.15474,3.63612 9.42699,5.38685c5.79086,1.61605 6.19488,1.48138 13.73647,-3.63612c4.17481,-2.8281 8.21495,-5.25218 8.8883,-5.25218c0.67336,0 3.63612,2.15474 6.46422,4.84816c6.32955,5.79086 14.00581,9.96567 18.58463,9.96567c8.8883,0 16.96858,-2.96277 22.35543,-8.21495c6.32955,-6.19488 6.32955,-6.32955 3.36678,-34.2065c-1.07737,-10.36969 -2.02007,-23.83681 -2.02007,-30.03169c0,-6.86823 -1.07737,-14.94851 -2.69342,-21.41273c-1.61605,-5.65619 -2.55875,-10.90837 -2.28941,-11.7164c0.9427,-2.55875 -1.61605,-7.54159 -3.77079,-7.54159c-1.07737,0 -2.69342,1.61605 -3.36678,3.50145c-0.80803,1.8854 -4.04014,6.46422 -7.13758,10.10034c-5.25218,6.06021 -11.31238,16.83391 -19.93134,35.82255c-3.09744,6.86823 -5.38685,8.34962 -9.02297,6.06021c-1.21204,-0.9427 -0.67336,-3.36678 2.42408,-11.04304c2.15474,-5.38685 4.04014,-10.90837 4.04014,-12.12041c0,-1.34671 1.21204,-3.90547 2.69342,-5.79086c1.48138,-1.8854 2.69342,-4.30948 2.69342,-5.52152c0,-2.69342 4.84816,-11.31238 8.75363,-15.62186c5.79086,-6.46422 20.87404,-27.33826 20.87404,-28.95432c0,-2.28941 6.46422,-13.87114 11.17771,-19.93134c4.44415,-5.79086 8.8883,-8.34962 21.00871,-12.38975c9.02297,-2.96277 11.98574,-5.52152 10.50436,-9.29232c-1.21204,-3.09744 -4.71349,-2.69342 -13.19778,1.48138c-4.04014,1.8854 -9.69633,4.17481 -12.6591,5.11751c-4.84816,1.48138 -9.56166,6.19488 -11.98574,11.85107c-0.9427,2.42408 -3.50145,-1.75073 -3.50145,-5.92553c0,-3.50145 -3.23211,-9.15764 -4.57882,-7.81093c-0.40401,0.40401 -0.13467,2.8281 0.53868,5.38685c1.75073,5.92553 1.75073,11.98574 0,11.98574c-0.67336,0 -1.34671,-1.61605 -1.34671,-3.77079c0,-8.34962 -6.19488,-21.41273 -8.8883,-18.7193c-0.53868,0.40401 -0.9427,3.63612 -1.07737,7.0029c-0.13467,7.54159 -2.42408,7.13758 -3.90547,-0.80803c-0.67336,-3.23211 -1.75073,-6.46422 -2.42408,-7.27225c-0.67336,-0.67336 -1.21204,-2.28941 -1.21204,-3.63612c0,-2.96277 -3.77079,-3.23211 -4.98284,-0.26934z" id="svg_11"/>
   <path stroke="null" d="m205.19586,508.60649c-1.8854,1.75073 -0.53868,7.81093 2.69342,13.46712c3.50145,5.92553 3.63612,6.46422 2.15474,16.29522c-1.61605,11.98574 -1.34671,16.69923 0.9427,19.52733c1.21204,1.48138 2.42408,1.75073 4.04014,0.9427c1.61605,-0.9427 2.15474,-3.36678 2.15474,-9.15764c0,-4.30948 0.9427,-13.19778 2.02007,-19.79667l1.75073,-11.98574l-5.25218,-4.44415c-5.25218,-4.44415 -9.15764,-6.32955 -10.50436,-4.84816z" id="svg_12"/>
   <path stroke="null" d="m1068.43852,557.22281c-0.53868,0.67336 -1.21204,5.11751 -1.61605,9.831c-0.9427,9.96567 -5.92553,31.24373 -10.63903,45.51888c-1.8854,5.52152 -5.11751,16.42989 -7.27225,24.24082c-2.15474,7.81093 -5.11751,17.37259 -6.73356,21.14338c-2.02007,5.11751 -2.28941,7.13758 -1.07737,7.13758c2.42408,0 7.27225,-7.81093 8.8883,-14.54449c0.80803,-3.09744 2.15474,-8.21495 2.96277,-11.44706c0.67336,-3.09744 2.8281,-10.23501 4.44415,-15.75654c1.75073,-5.52152 4.71349,-15.21785 6.59889,-21.5474c7.13758,-23.16345 10.50436,-45.78822 7.0029,-45.78822c-1.07737,0 -2.15474,0.53868 -2.55875,1.21204z" id="svg_13"/>
   <path stroke="null" d="m523.96269,575.13408c-0.67336,9.831 -1.8854,19.12332 -2.69342,20.6047c-5.11751,10.50436 -7.9456,15.48719 -11.04304,20.20069c-16.56456,25.18352 -51.57909,57.50462 -64.37285,59.39002c-3.63612,0.53868 -5.79086,1.48138 -5.79086,2.69342c0,2.42408 7.81093,2.55875 13.06311,0.26934c4.71349,-2.02007 19.662,-12.52443 22.08608,-15.48719c1.07737,-1.21204 10.50436,-9.29232 21.00871,-18.04595c10.50436,-8.75363 19.79667,-17.37259 20.73937,-18.98865c0.9427,-1.75073 2.02007,-3.36678 2.42408,-3.77079c1.21204,-0.9427 4.04014,-9.02297 6.32955,-17.50726c1.07737,-4.04014 2.55875,-9.29232 3.23211,-11.44706c0.53868,-2.28941 1.34671,-11.04304 1.61605,-19.52733c0.40401,-14.81384 0.26934,-15.48719 -2.42408,-15.89121c-2.69342,-0.40401 -2.8281,0.40401 -4.17481,17.50726z" id="svg_14"/>
   <path stroke="null" d="m1037.73348,610.68729c-0.40401,0.40401 -0.53868,3.09744 -0.13467,5.92553c0.9427,7.13758 -1.61605,17.23792 -8.34962,32.3211c-3.09744,7.0029 -9.29232,21.81674 -13.6018,32.99445c-4.30948,11.04304 -9.02297,21.81674 -10.50436,23.83681c-3.09744,4.30948 -7.13758,5.38685 -4.98284,1.34671c0.9427,-1.75073 0.80803,-3.09744 -0.13467,-4.04014c-2.28941,-2.28941 -3.77079,-2.02007 -3.77079,0.80803c0,1.34671 -1.07737,3.77079 -2.28941,5.65619c-1.21204,1.75073 -2.42408,4.44415 -2.55875,5.92553c-0.13467,1.61605 -3.63612,10.63903 -7.81093,20.33536c-4.04014,9.56166 -7.54159,18.58463 -7.54159,19.93134c0,5.52152 3.36678,0.80803 8.34962,-11.85107c2.96277,-7.40692 6.59889,-16.16055 8.08027,-19.52733c1.48138,-3.23211 3.23211,-7.27225 3.90547,-8.8883c0.80803,-2.28941 1.8854,-2.8281 3.90547,-2.28941c5.92553,1.61605 10.90837,-6.06021 20.33536,-31.24373c2.96277,-8.21495 7.67626,-19.39266 10.23501,-24.91418c8.61896,-18.58463 12.25508,-32.59044 11.31238,-44.84552c-0.13467,-2.15474 -2.8281,-3.09744 -4.44415,-1.48138z" id="svg_15"/>
   <path stroke="null" d="m188.36196,626.98251c-2.15474,4.57882 -7.27225,6.59889 -11.7164,4.57882c-3.50145,-1.61605 -12.12041,-0.80803 -13.33245,1.21204c-1.34671,2.15474 0.9427,5.38685 3.77079,5.38685c1.48138,0 5.92553,0.9427 9.831,2.28941l7.13758,2.15474l5.79086,-3.90547c3.09744,-2.15474 9.02297,-5.11751 13.19778,-6.73356c5.38685,-2.02007 7.40692,-3.50145 7.40692,-5.38685c0,-2.15474 -1.21204,-2.55875 -10.36969,-2.69342c-9.56166,-0.13467 -10.36969,0 -11.7164,3.09744z" id="svg_16"/>
   <path stroke="null" d="m489.21751,661.05434c-0.40401,1.34671 -2.69342,4.57882 -5.11751,7.0029c-2.42408,2.42408 -5.92553,6.46422 -7.81093,9.02297c-2.28941,3.23211 -4.44415,4.57882 -7.13758,4.71349c-3.23211,0.13467 -4.04014,0.9427 -5.79086,6.19488c-1.07737,3.23211 -4.17481,9.29232 -6.73356,13.19778c-4.30948,6.86823 -4.98284,11.04304 -1.75073,11.04304c0.80803,0 3.63612,-3.50145 6.32955,-7.81093c2.69342,-4.17481 8.34962,-11.31238 12.52443,-15.75654c4.17481,-4.44415 10.23501,-11.44706 13.6018,-15.48719c3.23211,-4.04014 6.32955,-7.67626 7.0029,-7.81093c0.53868,-0.26934 0.9427,-2.02007 0.9427,-3.77079c0,-4.04014 -4.84816,-4.57882 -6.06021,-0.53868z" id="svg_17"/>
   <path stroke="null" d="m681.93206,663.88243c0.40401,0.80803 4.71349,3.23211 9.29232,5.25218c8.34962,3.77079 18.58463,12.52443 24.24082,20.73937c4.17481,6.19488 12.6591,16.02588 16.56456,19.25799c4.57882,3.90547 11.85107,4.04014 22.89411,0.53868c10.23501,-3.36678 14.27515,-2.28941 21.41273,4.98284c3.90547,4.04014 5.92553,7.81093 8.21495,15.62186c1.61605,5.52152 2.96277,11.17771 2.96277,12.25508c0,1.21204 0.80803,2.42408 1.8854,2.8281c1.07737,0.40401 2.69342,2.69342 3.63612,4.98284c2.28941,5.79086 5.11751,9.02297 8.21495,9.02297c3.23211,0 3.09744,-2.28941 -0.26934,-4.04014c-1.48138,-0.80803 -2.42408,-2.02007 -2.02007,-2.69342c0.40401,-0.80803 -1.07737,-4.17481 -3.50145,-7.54159c-2.28941,-3.36678 -4.57882,-8.61896 -4.98284,-11.7164c-0.26934,-3.09744 -1.48138,-6.86823 -2.42408,-8.34962c-1.07737,-1.48138 -1.8854,-3.90547 -1.8854,-5.38685c0,-1.48138 -2.96277,-5.65619 -6.59889,-9.29232c-8.34962,-8.21495 -14.27515,-9.29232 -28.14629,-4.98284c-5.25218,1.48138 -10.10034,2.8281 -10.90837,2.8281c-2.55875,0 -13.06311,-10.50436 -19.25799,-19.12332c-9.29232,-12.92844 -18.04595,-19.93134 -30.70504,-24.10615c-8.61896,-2.96277 -9.96567,-3.09744 -8.61896,-1.07737z" id="svg_18"/>
   <path stroke="null" d="m991.2719,683.54443c-1.61605,4.57882 -7.27225,18.58463 -9.96567,24.24082c-1.34671,3.23211 -2.55875,6.32955 -2.55875,7.13758c0,0.80803 -0.53868,2.42408 -1.21204,3.77079c-2.96277,5.52152 -9.29232,24.37549 -10.23501,29.89702c-1.07737,7.0029 -4.44415,13.46712 -7.0029,13.46712c-0.9427,0 -1.75073,0.9427 -1.75073,2.02007c0,1.21204 1.21204,2.02007 3.23211,2.02007c3.90547,0 8.34962,-6.73356 10.23501,-15.89121c1.48138,-6.73356 6.06021,-21.14338 8.75363,-27.87695c0.9427,-2.28941 4.30948,-10.63903 7.40692,-18.85397c3.09744,-8.08027 6.73356,-15.48719 7.81093,-16.29522c1.8854,-1.34671 1.8854,-1.8854 0.40401,-3.77079c-2.28941,-2.8281 -4.04014,-2.69342 -5.11751,0.13467z" id="svg_19"/>
   <path stroke="null" d="m1050.39257,702.39841c-1.48138,3.63612 -3.23211,8.8883 -3.63612,11.85107c-2.28941,14.54449 -7.54159,37.30393 -9.831,43.22947c-1.48138,3.63612 -5.11751,12.92844 -8.21495,20.47003c-3.23211,7.67626 -5.92553,16.56456 -6.32955,19.79667c-0.26934,3.09744 -1.48138,8.21495 -2.55875,11.44706c-1.07737,3.09744 -2.02007,6.73356 -2.02007,8.08027c0,1.21204 -1.48138,4.44415 -3.36678,7.13758c-3.63612,5.52152 -2.15474,8.08027 2.42408,4.04014c4.30948,-3.50145 4.57882,-4.04014 6.19488,-12.6591c0.9427,-4.44415 2.15474,-7.9456 2.96277,-7.9456c0.67336,0 1.21204,0.53868 1.21204,1.34671c0,0.67336 0.9427,1.34671 2.02007,1.34671c1.07737,0 1.8854,-1.07737 1.75073,-2.42408c-0.13467,-1.21204 1.61605,-8.61896 4.17481,-16.42989c2.42408,-7.81093 5.65619,-18.44996 7.13758,-23.56747c3.63612,-12.25508 10.23501,-31.64774 11.85107,-35.01452c1.34671,-2.42408 5.25218,-18.85397 5.79086,-23.56747c0.13467,-1.07737 -0.26934,-2.15474 -1.07737,-2.42408c-0.67336,-0.26934 -2.42408,3.63612 -3.63612,8.75363c-4.17481,15.89121 -7.0029,24.64484 -8.08027,24.64484c-1.48138,0 -1.48138,0 2.42408,-18.18062c2.28941,-11.04304 4.30948,-17.10325 6.19488,-19.12332c2.28941,-2.55875 2.55875,-3.36678 1.07737,-5.11751c-2.55875,-3.09744 -3.36678,-2.55875 -6.46422,4.30948z" id="svg_20"/>
   <path stroke="null" d="m721.5254,708.9973c0,0.9427 8.48429,14.54449 13.87114,22.22075c2.96277,4.30948 4.44415,5.25218 8.08027,5.25218c2.28941,0 6.06021,-0.9427 8.08027,-2.02007c2.69342,-1.34671 4.57882,-1.61605 6.19488,-0.67336c3.23211,1.61605 6.86823,7.40692 6.86823,10.63903c0,1.48138 0.67336,3.09744 1.34671,3.50145c0.80803,0.40401 1.34671,2.02007 1.34671,3.36678c0,4.98284 11.98574,11.44706 15.21785,8.21495c1.21204,-1.34671 0.40401,-2.69342 -3.36678,-6.32955c-2.8281,-2.55875 -6.86823,-8.21495 -9.02297,-12.52443c-6.46422,-12.52443 -11.58173,-15.48719 -21.41273,-11.98574c-4.30948,1.61605 -4.71349,1.48138 -7.27225,-1.61605c-1.48138,-1.8854 -5.38685,-6.32955 -8.61896,-9.96567c-3.23211,-3.63612 -5.92553,-7.13758 -5.92553,-7.67626c0,-0.67336 -1.21204,-1.21204 -2.69342,-1.21204c-1.48138,0 -2.69342,0.40401 -2.69342,0.80803z" id="svg_21"/>
   <path stroke="null" d="m950.87053,736.06622c-7.13758,15.89121 -15.21785,35.01452 -15.21785,36.22656c0,0.67336 -1.75073,5.52152 -4.04014,10.63903c-2.15474,5.25218 -4.04014,10.63903 -4.04014,12.25508c0,1.48138 -1.21204,5.25218 -2.69342,8.34962c-3.36678,6.86823 -3.36678,8.34962 -0.13467,8.34962c1.75073,0 3.23211,-2.15474 5.38685,-7.54159c1.48138,-4.17481 2.8281,-8.61896 2.8281,-9.831c0,-2.42408 16.56456,-44.44151 21.68207,-54.94587c1.48138,-3.23211 3.23211,-6.06021 4.04014,-6.46422c2.28941,-1.48138 1.34671,-6.06021 -1.21204,-6.06021c-1.75073,0 -3.77079,2.69342 -6.59889,9.02297z" id="svg_22"/>
   <path stroke="null" d="m1019.14885,765.02053c0,1.75073 -1.61605,6.73356 -3.50145,11.17771c-4.44415,10.63903 -16.69923,42.82545 -16.69923,44.17217c0,0.53868 -3.09744,9.02297 -6.86823,18.85397c-9.56166,24.77951 -17.50726,40.40137 -19.39266,38.3813c-0.67336,-0.67336 1.21204,-7.13758 7.0029,-23.02878c3.77079,-10.23501 8.48429,-27.33826 8.48429,-30.97439c0,-1.34671 -1.07737,-2.28941 -2.69342,-2.28941c-2.69342,0 -3.23211,1.21204 -2.8281,5.65619c0.13467,1.34671 -0.9427,7.0029 -2.55875,12.6591c-2.8281,9.96567 -6.59889,17.7766 -26.66491,56.02324c-5.52152,10.50436 -9.29232,19.39266 -8.8883,20.6047c1.07737,2.55875 3.23211,2.69342 3.23211,0.13467c0,-0.9427 1.07737,-2.15474 2.42408,-2.42408c1.34671,-0.40401 5.52152,-7.0029 10.23501,-16.02588c4.30948,-8.48429 8.08027,-15.62186 8.34962,-15.89121c0.26934,-0.26934 1.34671,0.13467 2.28941,1.07737c5.11751,4.17481 14.81384,-12.79377 27.06892,-47.53895c0.40401,-1.34671 1.21204,-2.15474 1.61605,-1.8854c0.67336,0.67336 -5.38685,19.662 -11.58173,36.09189c-2.8281,7.9456 -3.50145,14.81384 -1.34671,14.81384c0.80803,0 1.34671,-0.9427 1.34671,-2.02007c0,-3.63612 14.81384,-45.78822 20.73937,-58.986c3.63612,-8.21495 4.30948,-11.7164 2.15474,-11.7164c-1.75073,0 -8.08027,12.6591 -8.08027,16.02588c0,1.48138 -0.67336,3.09744 -1.48138,3.63612c-0.9427,0.53868 -1.21204,0 -0.80803,-1.61605c0.40401,-1.48138 1.75073,-6.19488 3.09744,-10.63903c1.21204,-4.44415 2.69342,-8.75363 3.23211,-9.42699c0.53868,-0.80803 3.23211,-7.40692 5.92553,-14.81384c2.8281,-7.27225 6.19488,-16.02588 7.67626,-19.25799c3.63612,-7.81093 3.90547,-12.79377 0.9427,-13.46712c-1.75073,-0.26934 -2.42408,0.40401 -2.42408,2.69342z" id="svg_23"/>
   <path stroke="null" d="m917.60673,772.56212c-0.40401,0.67336 -3.63612,10.10034 -7.27225,21.27806c-8.34962,25.04885 -12.79377,35.01452 -18.04595,40.53604c-4.30948,4.44415 -4.17481,7.40692 0.26934,6.19488c3.36678,-0.9427 9.15764,-9.42699 13.19778,-19.25799c3.23211,-8.21495 10.50436,-29.493 12.25508,-35.68788c0.53868,-2.28941 1.75073,-5.38685 2.55875,-7.0029c2.15474,-4.04014 2.02007,-7.13758 -0.26934,-7.13758c-1.07737,0 -2.28941,0.53868 -2.69342,1.07737z" id="svg_24"/>
   <path stroke="null" d="m883.80425,793.16682c-0.53868,0.67336 -2.02007,7.0029 -3.50145,13.73647c-1.34671,6.86823 -3.90547,15.89121 -5.38685,20.20069c-3.23211,8.61896 -6.06021,11.85107 -4.57882,5.11751c0.53868,-2.28941 0.53868,-6.06021 0,-8.21495c-1.21204,-5.38685 -4.71349,-5.38685 -4.71349,0c0,5.11751 -3.63612,12.52443 -5.79086,11.7164c-2.02007,-0.67336 -1.48138,-3.63612 2.69342,-14.40982c1.8854,-4.84816 4.71349,-9.831 6.32955,-11.04304c2.42408,-2.02007 2.55875,-2.55875 0.80803,-3.77079c-1.07737,-0.67336 -2.42408,-1.34671 -2.96277,-1.34671c-2.28941,0 -8.08027,12.79377 -14.00581,30.97439c-3.50145,10.7737 -7.27225,20.47003 -8.34962,21.5474c-1.75073,1.75073 -1.8854,1.48138 -1.07737,-2.02007c1.61605,-6.86823 4.44415,-28.01162 4.30948,-32.05176c-0.26934,-8.08027 -2.96277,-3.63612 -4.57882,7.81093c-0.9427,6.59889 -2.55875,16.02588 -3.63612,20.87404c-1.07737,4.84816 -2.42408,12.25508 -2.8281,16.42989c-0.80803,6.73356 -0.53868,7.81093 1.34671,7.81093c1.21204,0 2.15474,-0.80803 2.15474,-1.8854c0,-1.07737 0.53868,-2.15474 1.07737,-2.42408c1.8854,-0.80803 7.0029,-8.8883 7.0029,-11.17771c0,-1.21204 0.67336,-1.75073 1.34671,-1.34671c0.80803,0.40401 1.34671,3.23211 1.34671,6.06021c0,11.04304 3.36678,12.52443 7.40692,3.09744c1.48138,-3.50145 4.98284,-8.61896 7.81093,-11.44706c2.69342,-2.8281 4.98284,-6.19488 4.98284,-7.54159c0,-1.34671 0.53868,-2.96277 1.21204,-3.63612c1.48138,-1.61605 8.75363,-21.00871 10.63903,-28.28096c0.80803,-2.96277 2.28941,-9.02297 3.36678,-13.46712c1.07737,-4.44415 2.28941,-9.15764 2.96277,-10.50436c0.67336,-1.75073 0.26934,-2.28941 -1.75073,-2.28941c-1.61605,0 -3.23211,0.67336 -3.63612,1.48138z" id="svg_25"/>
   <path stroke="null" d="m952.62125,856.86632c-1.21204,1.8854 -2.15474,4.30948 -2.15474,5.52152c0,1.8854 -4.57882,14.40982 -9.15764,25.45286c-7.54159,17.7766 -26.39556,50.0977 -31.78241,54.54185c-2.28941,1.8854 -2.96277,5.52152 -1.07737,5.52152c1.34671,0 16.42989,-14.14048 16.42989,-15.35252c0,-0.53868 0.67336,-1.61605 1.34671,-2.55875c9.96567,-11.98574 30.97439,-44.84552 30.97439,-48.61632c0,-0.40401 -0.80803,-0.80803 -1.61605,-0.80803c-0.9427,0 -3.50145,3.77079 -5.79086,8.21495c-2.15474,4.44415 -5.65619,10.10034 -7.67626,12.38975l-3.77079,4.30948l3.50145,-8.08027c1.8854,-4.44415 4.30948,-9.96567 5.38685,-12.25508c1.07737,-2.28941 3.09744,-7.81093 4.57882,-12.12041c1.34671,-4.44415 3.23211,-9.96567 4.17481,-12.25508c2.42408,-5.92553 -0.13467,-8.75363 -3.36678,-3.90547z" id="svg_26"/>
   <path stroke="null" d="m914.37462,897.40236c-1.48138,1.8854 -5.92553,11.44706 -9.831,21.14338c-3.90547,9.831 -8.34962,19.52733 -9.831,21.5474c-2.8281,3.63612 -6.19488,4.98284 -6.19488,2.42408c0,-3.23211 -2.28941,-0.80803 -6.06021,6.19488c-2.15474,4.17481 -6.06021,9.15764 -8.34962,10.90837c-4.57882,3.50145 -5.92553,7.13758 -2.55875,7.13758c0.9427,0 4.04014,-2.42408 6.59889,-5.25218c2.55875,-2.8281 6.46422,-6.06021 8.48429,-7.13758c3.63612,-1.75073 16.42989,-16.56456 16.56456,-19.25799c0.13467,-0.80803 0.9427,-2.96277 2.02007,-4.84816c0.9427,-1.8854 3.77079,-9.02297 6.19488,-15.75654c2.42408,-6.73356 5.52152,-13.33245 6.86823,-14.54449c1.48138,-1.21204 2.55875,-3.09744 2.55875,-4.17481c0,-2.8281 -3.63612,-2.02007 -6.46422,1.61605z" id="svg_27"/>
   <path stroke="null" d="m882.32287,931.47419c-0.67336,0.53868 -2.8281,4.57882 -4.57882,9.02297c-2.8281,7.13758 -11.04304,18.18062 -13.33245,18.18062c-0.40401,0 -1.61605,-0.53868 -2.55875,-1.07737c-1.21204,-0.9427 -0.67336,-3.23211 2.42408,-10.23501c2.28941,-4.98284 4.04014,-10.10034 3.77079,-11.31238c-0.80803,-4.30948 -4.04014,-2.28941 -6.06021,3.77079c-1.07737,3.36678 -2.55875,6.59889 -3.23211,7.27225c-0.67336,0.80803 -1.21204,2.15474 -1.21204,3.09744c0,1.07737 -1.61605,3.50145 -3.50145,5.52152c-2.96277,2.96277 -3.36678,3.09744 -2.69342,0.9427c0.53868,-1.48138 1.34671,-4.57882 1.75073,-6.73356c0.40401,-2.28941 1.61605,-5.65619 2.55875,-7.67626c2.55875,-4.98284 2.28941,-7.81093 -0.67336,-7.81093c-1.8854,0 -3.09744,2.28941 -5.52152,10.36969c-1.61605,5.79086 -4.17481,13.06311 -5.65619,16.29522c-3.09744,6.59889 -2.42408,8.61896 1.61605,4.98284c2.42408,-2.15474 2.69342,-2.15474 2.69342,-0.26934c0,3.90547 3.77079,2.55875 7.13758,-2.55875l3.36678,-4.71349l2.55875,3.63612l2.69342,3.77079l7.54159,-7.13758c4.98284,-4.71349 8.34962,-9.29232 9.831,-13.46712c1.34671,-3.36678 3.23211,-7.27225 4.30948,-8.48429c3.09744,-3.63612 0.53868,-7.9456 -3.23211,-5.38685z" id="svg_28"/>
   <path stroke="null" d="m869.66377,38.19984c-2.8281,2.96277 -2.96277,3.63612 -1.34671,7.40692c1.61605,3.90547 2.02007,4.17481 6.86823,3.36678c3.63612,-0.67336 6.06021,-0.26934 8.21495,1.21204c2.69342,1.8854 3.09744,1.8854 5.25218,0c3.36678,-2.96277 5.52152,-1.34671 3.90547,2.96277c-2.15474,5.52152 -1.75073,7.67626 1.48138,6.86823c1.8854,-0.53868 2.96277,0.13467 3.90547,2.28941c2.15474,5.92553 4.30948,6.32955 11.17771,2.02007c3.50145,-2.15474 6.32955,-4.57882 6.32955,-5.25218c0,-2.28941 -4.04014,-1.48138 -8.34962,1.48138c-2.15474,1.61605 -4.04014,2.69342 -4.17481,2.42408c-3.90547,-7.40692 -4.98284,-10.23501 -4.98284,-13.46712c0,-2.96277 -0.9427,-4.30948 -4.04014,-5.92553c-2.15474,-1.21204 -4.04014,-2.69342 -4.04014,-3.36678c0,-0.80803 -1.21204,-1.34671 -2.69342,-1.34671c-1.48138,0 -2.69342,0.53868 -2.69342,1.34671c0,0.67336 -1.61605,1.34671 -3.63612,1.34671c-1.8854,0 -3.09744,-0.40401 -2.69342,-0.80803c1.21204,-1.34671 -1.61605,-5.92553 -3.63612,-5.92553c-0.9427,0 -3.09744,1.48138 -4.84816,3.36678z" id="svg_29"/>
   <path stroke="null" d="m554.26372,1035.70973c-4.30948,4.71349 -7.81093,8.8883 -7.81093,9.42699c0,0.67336 1.8854,1.07737 4.04014,1.07737c4.44415,0 5.11751,1.48138 1.8854,4.17481c-1.8854,1.48138 -7.27225,10.90837 -7.27225,12.6591c0,0.40401 1.07737,0.67336 2.42408,0.67336c1.34671,0 3.23211,-2.15474 4.57882,-5.11751c2.28941,-4.71349 5.38685,-9.02297 12.25508,-16.29522c2.02007,-2.28941 2.42408,-3.50145 1.34671,-3.77079c-2.15474,-0.80803 -2.28941,-4.71349 -0.26934,-6.73356c1.61605,-1.61605 0.53868,-4.44415 -1.75073,-4.44415c-0.80803,0 -5.11751,3.77079 -9.42699,8.34962z" id="svg_30"/>
   <path stroke="null" d="m712.09842,1088.23151c-3.90547,7.67626 -9.15764,16.83391 -11.7164,20.6047c-2.42408,3.63612 -4.44415,7.40692 -4.44415,8.21495c0,2.02007 -3.90547,9.69633 -5.52152,10.63903c-0.67336,0.53868 -1.21204,2.02007 -1.21204,3.50145c0,4.98284 3.23211,1.8854 7.67626,-7.0029c2.28941,-4.71349 4.84816,-9.29232 5.65619,-10.23501c0.80803,-0.9427 1.48138,-2.15474 1.48138,-2.8281c0,-0.67336 1.07737,-2.15474 2.42408,-3.09744c2.02007,-1.75073 2.15474,-1.61605 0.53868,0.40401c-1.07737,1.21204 -1.61605,4.04014 -1.48138,6.06021c0.26934,2.28941 -1.61605,8.08027 -4.57882,14.27515c-2.8281,5.79086 -4.71349,11.17771 -4.30948,11.85107c1.48138,2.28941 3.36678,1.21204 4.17481,-2.55875c1.07737,-4.04014 5.52152,-11.17771 8.21495,-12.79377c0.9427,-0.53868 1.75073,-1.75073 1.75073,-2.69342c0,-1.61605 2.02007,-5.65619 10.10034,-21.00871c3.09744,-5.79086 3.50145,-7.67626 2.28941,-9.42699c-3.77079,-5.11751 -3.77079,-5.38685 0.40401,-15.35252c0.67336,-1.75073 0.26934,-2.28941 -1.61605,-2.28941c-1.8854,0 -4.44415,3.63612 -9.831,13.73647z" id="svg_31"/>
  </g>
 </g>
</svg>